<svg xmlns="http://www.w3.org/2000/svg" viewBox="0 0 700 650" width="700" height="650" preserveAspectRatio="xMidYMid meet" style="width: 100%; height: 100%; transform: translate3d(0px, 0px, 0px); content-visibility: visible;"><defs><clipPath id="__lottie_element_2"><rect width="700" height="650" x="0" y="0"></rect></clipPath><linearGradient id="__lottie_element_24" spreadMethod="pad" gradientUnits="userSpaceOnUse" x1="105" y1="-243" x2="97" y2="-90"><stop offset="0%" stop-color="rgb(255,208,62)" stop-opacity="1"></stop><stop offset="50%" stop-color="rgb(255,208,62)" stop-opacity="0.5"></stop><stop offset="100%" stop-color="rgb(255,208,62)" stop-opacity="0"></stop></linearGradient></defs><g clip-path="url(#__lottie_element_2)"><g transform="matrix(1,0,0,1,346,343)" opacity="0.12" style="display: block;"><g opacity="1" transform="matrix(1,0,0,1,0,0)"><path fill="rgb(92,55,31)" fill-opacity="1" d=" M-250.6009979248047,283.2359924316406 C-250.6009979248047,278.04998779296875 -211.99400329589844,273.84600830078125 -164.3699951171875,273.84600830078125 C-116.74600219726562,273.84600830078125 -78.13999938964844,278.04998779296875 -78.13999938964844,283.2359924316406 C-78.13999938964844,288.4219970703125 -116.74600219726562,292.625 -164.3699951171875,292.625 C-211.99400329589844,292.625 -250.6009979248047,288.4219970703125 -250.6009979248047,283.2359924316406z"></path></g><g opacity="1" transform="matrix(1,0,0,1,0,0)"><path fill="rgb(92,55,31)" fill-opacity="1" d=" M-72.36699676513672,206.81399536132812 C-72.36699676513672,202.9530029296875 -1.5369999408721924,199.82200622558594 85.83699798583984,199.82200622558594 C173.21099853515625,199.82200622558594 244.04100036621094,202.9530029296875 244.04100036621094,206.81399536132812 C244.04100036621094,210.6750030517578 173.21099853515625,213.80499267578125 85.83699798583984,213.80499267578125 C-1.5369999408721924,213.80499267578125 -72.36699676513672,210.6750030517578 -72.36699676513672,206.81399536132812z"></path></g></g><g transform="matrix(1,0,0,1,346,343)" opacity="1" style="display: block;"><g opacity="1" transform="matrix(1,0,0,1,0,0)"><g opacity="1" transform="matrix(1,0,0,1,0,0)"><path stroke-linecap="butt" stroke-linejoin="miter" fill-opacity="0" stroke-miterlimit="10" stroke="rgb(255,102,1)" stroke-opacity="1" stroke-width="3.107" d=" M113.94999694824219,-251.4969940185547 C113.94999694824219,-251.4969940185547 137.83299255371094,-233.8280029296875 137.83299255371094,-233.8280029296875 M221.48899841308594,-251.4969940185547 C221.48899841308594,-251.4969940185547 245.3719940185547,-233.8280029296875 245.3719940185547,-233.8280029296875"></path></g><g opacity="1" transform="matrix(1,0,0,1,0,0)"><path fill="rgb(65,61,175)" fill-opacity="1" d=" M219.26499938964844,-263.83599853515625 C217.4029998779297,-263.83599853515625 215.86300659179688,-262.156005859375 214.5229949951172,-258.9119873046875 C214.5229949951172,-258.9119873046875 223.0189971923828,-258.9119873046875 223.0189971923828,-258.9119873046875 C222.63099670410156,-261.5660095214844 221.2480010986328,-263.83599853515625 219.26499938964844,-263.83599853515625z M111.72599792480469,-263.83599853515625 C109.86399841308594,-263.83599853515625 108.3239974975586,-262.156005859375 106.98400115966797,-258.9119873046875 C106.98400115966797,-258.9119873046875 115.4800033569336,-258.9119873046875 115.4800033569336,-258.9119873046875 C115.09200286865234,-261.5660095214844 113.70899963378906,-263.83599853515625 111.72599792480469,-263.83599853515625z M105.81600189208984,-258.9119873046875 C104.1989974975586,-254.9980010986328 103.13700103759766,-249.2989959716797 103.13700103759766,-241.88299560546875 C103.13700103759766,-241.88299560546875 117.14399719238281,-241.88299560546875 117.14399719238281,-241.88299560546875 C117.14399719238281,-241.88299560546875 118.60099792480469,-252.77699279785156 116.64800262451172,-258.9119873046875 C116.64800262451172,-258.9119873046875 105.81600189208984,-258.9119873046875 105.81600189208984,-258.9119873046875z M213.35499572753906,-258.9119873046875 C211.73800659179688,-254.9980010986328 210.677001953125,-249.2989959716797 210.677001953125,-241.88299560546875 C210.677001953125,-241.88299560546875 224.68299865722656,-241.88299560546875 224.68299865722656,-241.88299560546875 C224.68299865722656,-241.88299560546875 226.13999938964844,-252.77699279785156 224.18699645996094,-258.9119873046875 C224.18699645996094,-258.9119873046875 213.35499572753906,-258.9119873046875 213.35499572753906,-258.9119873046875z"></path><path fill="rgb(128,51,0)" fill-opacity="1" d=" M105.81600189208984,-258.9119873046875 C104.1989974975586,-254.9980010986328 103.13700103759766,-249.2989959716797 103.13700103759766,-241.88299560546875 C103.13700103759766,-241.88299560546875 117.14399719238281,-241.88299560546875 117.14399719238281,-241.88299560546875 C117.14399719238281,-241.88299560546875 118.60099792480469,-252.77699279785156 116.64800262451172,-258.9119873046875 C116.64800262451172,-258.9119873046875 105.81600189208984,-258.9119873046875 105.81600189208984,-258.9119873046875z M213.35499572753906,-258.9119873046875 C211.73800659179688,-254.9980010986328 210.677001953125,-249.2989959716797 210.677001953125,-241.88299560546875 C210.677001953125,-241.88299560546875 224.68299865722656,-241.88299560546875 224.68299865722656,-241.88299560546875 C224.68299865722656,-241.88299560546875 226.13999938964844,-252.77699279785156 224.18699645996094,-258.9119873046875 C224.18699645996094,-258.9119873046875 213.35499572753906,-258.9119873046875 213.35499572753906,-258.9119873046875z"></path></g><g opacity="1" transform="matrix(1,0,0,1,0,0)"><path fill="rgb(89,36,0)" fill-opacity="1" d=" M110.90299987792969,-241.88299560546875 C110.90299987792969,-241.88299560546875 117.14399719238281,-241.88299560546875 117.14399719238281,-241.88299560546875 C117.14399719238281,-241.88299560546875 118.60099792480469,-252.77699279785156 116.64800262451172,-258.9119873046875 C116.64800262451172,-258.9119873046875 112.05699920654297,-258.9119873046875 112.05699920654297,-258.9119873046875 C111.23200225830078,-255.6230010986328 110.802001953125,-247.94900512695312 110.90299987792969,-241.88299560546875z M111.58699798583984,-258.9119873046875 C111.58699798583984,-258.9119873046875 115.4800033569336,-258.9119873046875 115.4800033569336,-258.9119873046875 C115.11900329589844,-261.3789978027344 113.89099884033203,-263.489013671875 112.12899780273438,-263.77801513671875 C112.22799682617188,-262.31201171875 112.06099700927734,-259.8739929199219 111.58699798583984,-258.9119873046875z M218.44200134277344,-241.88299560546875 C218.44200134277344,-241.88299560546875 224.68299865722656,-241.88299560546875 224.68299865722656,-241.88299560546875 C224.68299865722656,-241.88299560546875 226.13999938964844,-252.77699279785156 224.18699645996094,-258.9119873046875 C224.18699645996094,-258.9119873046875 219.5959930419922,-258.9119873046875 219.5959930419922,-258.9119873046875 C218.77099609375,-255.6230010986328 218.34100341796875,-247.94900512695312 218.44200134277344,-241.88299560546875z M219.1269989013672,-258.9119873046875 C219.1269989013672,-258.9119873046875 223.0189971923828,-258.9119873046875 223.0189971923828,-258.9119873046875 C222.6580047607422,-261.3789978027344 221.42999267578125,-263.489013671875 219.66799926757812,-263.77801513671875 C219.76699829101562,-262.31201171875 219.6009979248047,-259.8739929199219 219.1269989013672,-258.9119873046875z"></path></g></g><g opacity="1" transform="matrix(1,0,0,1,-214.5,0)"><g opacity="1" transform="matrix(1,0,0,1,0,0)"><path stroke-linecap="butt" stroke-linejoin="miter" fill-opacity="0" stroke-miterlimit="10" stroke="rgb(255,102,1)" stroke-opacity="1" stroke-width="3.107" d=" M113.94999694824219,-251.4969940185547 C113.94999694824219,-251.4969940185547 137.83299255371094,-233.8280029296875 137.83299255371094,-233.8280029296875 M221.48899841308594,-251.4969940185547 C221.48899841308594,-251.4969940185547 245.3719940185547,-233.8280029296875 245.3719940185547,-233.8280029296875"></path></g><g opacity="1" transform="matrix(1,0,0,1,0,0)"><path fill="rgb(65,61,175)" fill-opacity="1" d=" M219.26499938964844,-263.83599853515625 C217.4029998779297,-263.83599853515625 215.86300659179688,-262.156005859375 214.5229949951172,-258.9119873046875 C214.5229949951172,-258.9119873046875 223.0189971923828,-258.9119873046875 223.0189971923828,-258.9119873046875 C222.63099670410156,-261.5660095214844 221.2480010986328,-263.83599853515625 219.26499938964844,-263.83599853515625z M111.72599792480469,-263.83599853515625 C109.86399841308594,-263.83599853515625 108.3239974975586,-262.156005859375 106.98400115966797,-258.9119873046875 C106.98400115966797,-258.9119873046875 115.4800033569336,-258.9119873046875 115.4800033569336,-258.9119873046875 C115.09200286865234,-261.5660095214844 113.70899963378906,-263.83599853515625 111.72599792480469,-263.83599853515625z M105.81600189208984,-258.9119873046875 C104.1989974975586,-254.9980010986328 103.13700103759766,-249.2989959716797 103.13700103759766,-241.88299560546875 C103.13700103759766,-241.88299560546875 117.14399719238281,-241.88299560546875 117.14399719238281,-241.88299560546875 C117.14399719238281,-241.88299560546875 118.60099792480469,-252.77699279785156 116.64800262451172,-258.9119873046875 C116.64800262451172,-258.9119873046875 105.81600189208984,-258.9119873046875 105.81600189208984,-258.9119873046875z M213.35499572753906,-258.9119873046875 C211.73800659179688,-254.9980010986328 210.677001953125,-249.2989959716797 210.677001953125,-241.88299560546875 C210.677001953125,-241.88299560546875 224.68299865722656,-241.88299560546875 224.68299865722656,-241.88299560546875 C224.68299865722656,-241.88299560546875 226.13999938964844,-252.77699279785156 224.18699645996094,-258.9119873046875 C224.18699645996094,-258.9119873046875 213.35499572753906,-258.9119873046875 213.35499572753906,-258.9119873046875z"></path><path fill="rgb(128,51,0)" fill-opacity="1" d=" M105.81600189208984,-258.9119873046875 C104.1989974975586,-254.9980010986328 103.13700103759766,-249.2989959716797 103.13700103759766,-241.88299560546875 C103.13700103759766,-241.88299560546875 117.14399719238281,-241.88299560546875 117.14399719238281,-241.88299560546875 C117.14399719238281,-241.88299560546875 118.60099792480469,-252.77699279785156 116.64800262451172,-258.9119873046875 C116.64800262451172,-258.9119873046875 105.81600189208984,-258.9119873046875 105.81600189208984,-258.9119873046875z M213.35499572753906,-258.9119873046875 C211.73800659179688,-254.9980010986328 210.677001953125,-249.2989959716797 210.677001953125,-241.88299560546875 C210.677001953125,-241.88299560546875 224.68299865722656,-241.88299560546875 224.68299865722656,-241.88299560546875 C224.68299865722656,-241.88299560546875 226.13999938964844,-252.77699279785156 224.18699645996094,-258.9119873046875 C224.18699645996094,-258.9119873046875 213.35499572753906,-258.9119873046875 213.35499572753906,-258.9119873046875z"></path></g><g opacity="1" transform="matrix(1,0,0,1,0,0)"><path fill="rgb(89,36,0)" fill-opacity="1" d=" M110.90299987792969,-241.88299560546875 C110.90299987792969,-241.88299560546875 117.14399719238281,-241.88299560546875 117.14399719238281,-241.88299560546875 C117.14399719238281,-241.88299560546875 118.60099792480469,-252.77699279785156 116.64800262451172,-258.9119873046875 C116.64800262451172,-258.9119873046875 112.05699920654297,-258.9119873046875 112.05699920654297,-258.9119873046875 C111.23200225830078,-255.6230010986328 110.802001953125,-247.94900512695312 110.90299987792969,-241.88299560546875z M111.58699798583984,-258.9119873046875 C111.58699798583984,-258.9119873046875 115.4800033569336,-258.9119873046875 115.4800033569336,-258.9119873046875 C115.11900329589844,-261.3789978027344 113.89099884033203,-263.489013671875 112.12899780273438,-263.77801513671875 C112.22799682617188,-262.31201171875 112.06099700927734,-259.8739929199219 111.58699798583984,-258.9119873046875z M218.44200134277344,-241.88299560546875 C218.44200134277344,-241.88299560546875 224.68299865722656,-241.88299560546875 224.68299865722656,-241.88299560546875 C224.68299865722656,-241.88299560546875 226.13999938964844,-252.77699279785156 224.18699645996094,-258.9119873046875 C224.18699645996094,-258.9119873046875 219.5959930419922,-258.9119873046875 219.5959930419922,-258.9119873046875 C218.77099609375,-255.6230010986328 218.34100341796875,-247.94900512695312 218.44200134277344,-241.88299560546875z M219.1269989013672,-258.9119873046875 C219.1269989013672,-258.9119873046875 223.0189971923828,-258.9119873046875 223.0189971923828,-258.9119873046875 C222.6580047607422,-261.3789978027344 221.42999267578125,-263.489013671875 219.66799926757812,-263.77801513671875 C219.76699829101562,-262.31201171875 219.6009979248047,-259.8739929199219 219.1269989013672,-258.9119873046875z"></path></g></g><g opacity="1" transform="matrix(1,0,0,1,0,0)"><path fill="rgb(131,52,0)" fill-opacity="1" d=" M120.89299774169922,173.00999450683594 C120.89299774169922,173.00999450683594 50.78099822998047,173.00999450683594 50.78099822998047,173.00999450683594 C50.78099822998047,173.00999450683594 50.78099822998047,18.76099967956543 50.78099822998047,18.76099967956543 C50.78099822998047,18.76099967956543 120.89299774169922,18.76099967956543 120.89299774169922,18.76099967956543 C120.89299774169922,18.76099967956543 120.89299774169922,173.00999450683594 120.89299774169922,173.00999450683594z M126.94100189208984,206.81399536132812 C126.94100189208984,206.81399536132812 9.916999816894531,206.81399536132812 9.916999816894531,206.81399536132812 C9.916999816894531,206.81399536132812 21.601999282836914,180.8350067138672 21.601999282836914,180.8350067138672 C21.601999282836914,180.8350067138672 126.94100189208984,180.8350067138672 126.94100189208984,180.8350067138672 C126.94100189208984,180.8350067138672 126.94100189208984,206.81399536132812 126.94100189208984,206.81399536132812z"></path></g><g opacity="1" transform="matrix(1,0,0,1,0,0)"><path fill="rgb(255,102,1)" fill-opacity="1" d=" M120.89299774169922,36.5 C120.89299774169922,36.5 50.78099822998047,36.5 50.78099822998047,36.5 C50.78099822998047,36.5 50.78099822998047,18.76099967956543 50.78099822998047,18.76099967956543 C50.78099822998047,18.76099967956543 120.89299774169922,18.76099967956543 120.89299774169922,18.76099967956543 C120.89299774169922,18.76099967956543 120.89299774169922,36.5 120.89299774169922,36.5z M120.89299774169922,108.68800354003906 C120.89299774169922,108.68800354003906 50.78099822998047,108.68800354003906 50.78099822998047,108.68800354003906 C50.78099822998047,108.68800354003906 50.78099822998047,100.9749984741211 50.78099822998047,100.9749984741211 C50.78099822998047,100.9749984741211 120.89299774169922,100.9749984741211 120.89299774169922,100.9749984741211 C120.89299774169922,100.9749984741211 120.89299774169922,108.68800354003906 120.89299774169922,108.68800354003906z M131.2220001220703,173.00999450683594 C131.2220001220703,173.00999450683594 120.89299774169922,173.00999450683594 120.89299774169922,173.00999450683594 C120.89299774169922,173.00999450683594 120.89299774169922,18.76099967956543 120.89299774169922,18.76099967956543 C120.89299774169922,18.76099967956543 131.2220001220703,18.76099967956543 131.2220001220703,18.76099967956543 C131.2220001220703,18.76099967956543 131.2220001220703,173.00999450683594 131.2220001220703,173.00999450683594z M126.94100189208984,206.81399536132812 C126.94100189208984,206.81399536132812 170.625,206.81399536132812 170.625,206.81399536132812 C170.625,206.81399536132812 158.93899536132812,180.8350067138672 158.93899536132812,180.8350067138672 C158.93899536132812,180.8350067138672 126.94100189208984,180.8350067138672 126.94100189208984,180.8350067138672 C126.94100189208984,180.8350067138672 126.94100189208984,206.81399536132812 126.94100189208984,206.81399536132812z M278.9570007324219,18.76099967956543 C278.9570007324219,18.76099967956543 255.16900634765625,18.76099967956543 255.16900634765625,18.76099967956543 C255.16900634765625,18.76099967956543 255.16900634765625,-237.64599609375 255.16900634765625,-237.64599609375 C255.16900634765625,-237.64599609375 278.9570007324219,-237.64599609375 278.9570007324219,-237.64599609375 C278.9570007324219,-237.64599609375 278.9570007324219,18.76099967956543 278.9570007324219,18.76099967956543z"></path></g><g opacity="1" transform="matrix(1,0,0,1,0,0)"><path fill="rgb(255,102,1)" fill-opacity="1" d=" M255.16900634765625,18.76099967956543 C255.16900634765625,18.76099967956543 -104.15399932861328,18.76099967956543 -104.15399932861328,18.76099967956543 C-104.15399932861328,18.76099967956543 -104.15399932861328,-237.64599609375 -104.15399932861328,-237.64599609375 C-104.15399932861328,-237.64599609375 255.16900634765625,-237.64599609375 255.16900634765625,-237.64599609375 C255.16900634765625,-237.64599609375 255.16900634765625,18.76099967956543 255.16900634765625,18.76099967956543z M126.94100189208984,100.9749984741211 C126.94100189208984,100.9749984741211 42.643001556396484,100.9749984741211 42.643001556396484,100.9749984741211 C42.643001556396484,100.9749984741211 42.643001556396484,90.79499816894531 42.643001556396484,90.79499816894531 C42.643001556396484,90.79499816894531 126.94100189208984,90.79499816894531 126.94100189208984,90.79499816894531 C126.94100189208984,90.79499816894531 126.94100189208984,100.9749984741211 126.94100189208984,100.9749984741211z M126.94100189208984,180.8350067138672 C126.94100189208984,180.8350067138672 42.643001556396484,180.8350067138672 42.643001556396484,180.8350067138672 C42.643001556396484,180.8350067138672 42.643001556396484,173.00999450683594 42.643001556396484,173.00999450683594 C42.643001556396484,173.00999450683594 126.94100189208984,173.00999450683594 126.94100189208984,173.00999450683594 C126.94100189208984,173.00999450683594 126.94100189208984,180.8350067138672 126.94100189208984,180.8350067138672z"></path></g><g opacity="1" transform="matrix(1,0,0,1,0,0)"><path fill="rgb(128,51,0)" fill-opacity="1" d=" M139.36000061035156,180.8350067138672 C139.36000061035156,180.8350067138672 126.94100189208984,180.8350067138672 126.94100189208984,180.8350067138672 C126.94100189208984,180.8350067138672 126.94100189208984,173.00999450683594 126.94100189208984,173.00999450683594 C126.94100189208984,173.00999450683594 139.36000061035156,173.00999450683594 139.36000061035156,173.00999450683594 C139.36000061035156,173.00999450683594 139.36000061035156,180.8350067138672 139.36000061035156,180.8350067138672z M139.36000061035156,100.9749984741211 C139.36000061035156,100.9749984741211 126.94100189208984,100.9749984741211 126.94100189208984,100.9749984741211 C126.94100189208984,100.9749984741211 126.94100189208984,90.79499816894531 126.94100189208984,90.79499816894531 C126.94100189208984,90.79499816894531 139.36000061035156,90.79499816894531 139.36000061035156,90.79499816894531 C139.36000061035156,90.79499816894531 139.36000061035156,100.9749984741211 139.36000061035156,100.9749984741211z"></path></g><g opacity="1" transform="matrix(1,0,0,1,0,0)"><path fill="rgb(255,255,255)" fill-opacity="1" d=" M-93.0250015258789,7.631999969482422 C-93.0250015258789,7.631999969482422 -93.0250015258789,-226.51699829101562 -93.0250015258789,-226.51699829101562 C-93.0250015258789,-226.51699829101562 244.04100036621094,-226.51699829101562 244.04100036621094,-226.51699829101562 C244.04100036621094,-226.51699829101562 244.04100036621094,7.631999969482422 244.04100036621094,7.631999969482422 C244.04100036621094,7.631999969482422 -93.0250015258789,7.631999969482422 -93.0250015258789,7.631999969482422z M244.04100036621094,-34.41299819946289 C244.04100036621094,-34.41299819946289 -93.0250015258789,-34.41299819946289 -93.0250015258789,-34.41299819946289 C-93.0250015258789,-34.41299819946289 -93.0250015258789,7.631999969482422 -93.0250015258789,7.631999969482422 C-93.0250015258789,7.631999969482422 244.04100036621094,7.631999969482422 244.04100036621094,7.631999969482422 C244.04100036621094,7.631999969482422 244.04100036621094,-34.41299819946289 244.04100036621094,-34.41299819946289z"></path><path fill="rgb(232,236,246)" fill-opacity="1" d=" M244.04100036621094,-34.41299819946289 C244.04100036621094,-34.41299819946289 -93.0250015258789,-34.41299819946289 -93.0250015258789,-34.41299819946289 C-93.0250015258789,-34.41299819946289 -93.0250015258789,7.631999969482422 -93.0250015258789,7.631999969482422 C-93.0250015258789,7.631999969482422 244.04100036621094,7.631999969482422 244.04100036621094,7.631999969482422 C244.04100036621094,7.631999969482422 244.04100036621094,-34.41299819946289 244.04100036621094,-34.41299819946289z"></path></g><g opacity="1" transform="matrix(1,0,0,1,0,0)"><path fill="rgb(255,102,1)" fill-opacity="1" d=" M142.4340057373047,-143.5290069580078 C149.76300048828125,-136.8209991455078 153.42999267578125,-127.49199676513672 153.42999267578125,-115.54399871826172 C153.42999267578125,-103.59400177001953 149.8560028076172,-94.13800048828125 142.70799255371094,-87.17400360107422 C135.56100463867188,-80.20899963378906 124.65599822998047,-76.72699737548828 109.99500274658203,-76.72699737548828 C109.99500274658203,-76.72699737548828 83.71399688720703,-76.72699737548828 83.71399688720703,-76.72699737548828 C83.71399688720703,-76.72699737548828 83.71399688720703,-153.59100341796875 83.71399688720703,-153.59100341796875 C83.71399688720703,-153.59100341796875 110.875,-153.59100341796875 110.875,-153.59100341796875 C124.58200073242188,-153.59100341796875 135.1020050048828,-150.23699951171875 142.4340057373047,-143.5290069580078z M129.84300231933594,-97.83999633789062 C134.0570068359375,-101.79900360107422 136.16600036621094,-107.5530014038086 136.16600036621094,-115.10399627685547 C136.16600036621094,-122.65299987792969 134.0570068359375,-128.46499633789062 129.84300231933594,-132.5330047607422 C125.62699890136719,-136.6020050048828 119.15799713134766,-138.63600158691406 110.43499755859375,-138.63600158691406 C110.43499755859375,-138.63600158691406 100.86799621582031,-138.63600158691406 100.86799621582031,-138.63600158691406 C100.86799621582031,-138.63600158691406 100.86799621582031,-91.9020004272461 100.86799621582031,-91.9020004272461 C100.86799621582031,-91.9020004272461 111.75399780273438,-91.9020004272461 111.75399780273438,-91.9020004272461 C119.5979995727539,-91.9020004272461 125.62699890136719,-93.88099670410156 129.84300231933594,-97.83999633789062z M56.55400085449219,-76.72699737548828 C56.55400085449219,-76.72699737548828 49.40800094604492,-93.33200073242188 49.40800094604492,-93.33200073242188 C49.40800094604492,-93.33200073242188 17.187000274658203,-93.33200073242188 17.187000274658203,-93.33200073242188 C17.187000274658203,-93.33200073242188 10.041000366210938,-76.72699737548828 10.041000366210938,-76.72699737548828 C10.041000366210938,-76.72699737548828 -8.213000297546387,-76.72699737548828 -8.213000297546387,-76.72699737548828 C-8.213000297546387,-76.72699737548828 24.993999481201172,-153.59100341796875 24.993999481201172,-153.59100341796875 C24.993999481201172,-153.59100341796875 41.599998474121094,-153.59100341796875 41.599998474121094,-153.59100341796875 C41.599998474121094,-153.59100341796875 74.80799865722656,-76.72699737548828 74.80799865722656,-76.72699737548828 C74.80799865722656,-76.72699737548828 56.55400085449219,-76.72699737548828 56.55400085449219,-76.72699737548828z M33.35200119018555,-130.71800231933594 C33.35200119018555,-130.71800231933594 23.676000595092773,-108.39600372314453 23.676000595092773,-108.39600372314453 C23.676000595092773,-108.39600372314453 42.91899871826172,-108.39600372314453 42.91899871826172,-108.39600372314453 C42.91899871826172,-108.39600372314453 33.35200119018555,-130.71800231933594 33.35200119018555,-130.71800231933594z"></path></g><g opacity="1" transform="matrix(1,0,0,1,0,0)"><path fill="rgb(205,211,247)" fill-opacity="1" d=" M218.89398193359375,-143.30874633789062 C218.89398193359375,-143.30874633789062 174.10598754882812,-143.30874633789062 174.10598754882812,-143.30874633789062 C174.10598754882812,-143.30874633789062 174.10598754882812,-152.6287384033203 174.10598754882812,-152.6287384033203 C174.10598754882812,-152.6287384033203 218.89398193359375,-152.6287384033203 218.89398193359375,-152.6287384033203 C218.89398193359375,-152.6287384033203 218.89398193359375,-143.30874633789062 218.89398193359375,-143.30874633789062z M204.7284393310547,-126.445068359375 C204.7284393310547,-126.445068359375 169.26144409179688,-126.445068359375 169.26144409179688,-126.445068359375 C169.26144409179688,-126.445068359375 169.26144409179688,-135.76507568359375 169.26144409179688,-135.76507568359375 C169.26144409179688,-135.76507568359375 204.7284393310547,-135.76507568359375 204.7284393310547,-135.76507568359375 C204.7284393310547,-135.76507568359375 204.7284393310547,-126.445068359375 204.7284393310547,-126.445068359375z M209.1327362060547,-77.52196502685547 C209.1327362060547,-77.52196502685547 173.66574096679688,-77.52196502685547 173.66574096679688,-77.52196502685547 C173.66574096679688,-77.52196502685547 173.66574096679688,-86.84211730957031 173.66574096679688,-86.84211730957031 C173.66574096679688,-86.84211730957031 209.1327362060547,-86.84211730957031 209.1327362060547,-86.84211730957031 C209.1327362060547,-86.84211730957031 209.1327362060547,-77.52196502685547 209.1327362060547,-77.52196502685547z M-65.35220336914062,-86.84271240234375 C-65.35220336914062,-86.84271240234375 -20.5642032623291,-86.84271240234375 -20.5642032623291,-86.84271240234375 C-20.5642032623291,-86.84271240234375 -20.5642032623291,-77.52252960205078 -20.5642032623291,-77.52252960205078 C-20.5642032623291,-77.52252960205078 -65.35220336914062,-77.52252960205078 -65.35220336914062,-77.52252960205078 C-65.35220336914062,-77.52252960205078 -65.35220336914062,-86.84271240234375 -65.35220336914062,-86.84271240234375z M-61.50056457519531,-103.7843246459961 C-61.50056457519531,-103.7843246459961 -26.033565521240234,-103.7843246459961 -26.033565521240234,-103.7843246459961 C-26.033565521240234,-103.7843246459961 -26.033565521240234,-94.46432495117188 -26.033565521240234,-94.46432495117188 C-26.033565521240234,-94.46432495117188 -61.50056457519531,-94.46432495117188 -61.50056457519531,-94.46432495117188 C-61.50056457519531,-94.46432495117188 -61.50056457519531,-103.7843246459961 -61.50056457519531,-103.7843246459961z M-55.30203628540039,-152.69125366210938 C-55.30203628540039,-152.69125366210938 -19.83503532409668,-152.69125366210938 -19.83503532409668,-152.69125366210938 C-19.83503532409668,-152.69125366210938 -19.83503532409668,-143.37109375 -19.83503532409668,-143.37109375 C-19.83503532409668,-143.37109375 -55.30203628540039,-143.37109375 -55.30203628540039,-143.37109375 C-55.30203628540039,-143.37109375 -55.30203628540039,-152.69125366210938 -55.30203628540039,-152.69125366210938z"></path></g><g opacity="1" transform="matrix(1,0,0,1,0,0)"><path stroke-linecap="round" stroke-linejoin="miter" fill-opacity="0" stroke-miterlimit="4" stroke="rgb(232,236,246)" stroke-opacity="1" stroke-width="3.536" d=" M-27.20199966430664,-202.17799377441406 C-23.656999588012695,-198.63299560546875 -17.908000946044922,-198.63299560546875 -14.359999656677246,-202.17799377441406 C-10.819000244140625,-205.718994140625 -5.070000171661377,-205.718994140625 -1.5210000276565552,-202.17799377441406 C2.0220000743865967,-198.63299560546875 7.770999908447266,-198.63299560546875 11.3149995803833,-202.17799377441406 C14.854000091552734,-205.718994140625 20.610000610351562,-205.718994140625 24.152999877929688,-202.17799377441406 C27.69700050354004,-198.63299560546875 33.446998596191406,-198.63299560546875 36.99599838256836,-202.17799377441406 C40.53900146484375,-205.718994140625 46.28900146484375,-205.718994140625 49.8380012512207,-202.17799377441406 C53.37799835205078,-198.63299560546875 59.12900161743164,-198.63299560546875 62.67300033569336,-202.17799377441406 C66.21399688720703,-205.718994140625 71.96700286865234,-205.718994140625 75.50800323486328,-202.17799377441406 C79.0530014038086,-198.63299560546875 84.8010025024414,-198.63299560546875 88.3489990234375,-202.17799377441406 C91.88999938964844,-205.718994140625 97.63999938964844,-205.718994140625 101.18900299072266,-202.17799377441406 C104.73100280761719,-198.63299560546875 110.48100280761719,-198.63299560546875 114.0250015258789,-202.17799377441406 C117.56400299072266,-205.718994140625 123.31999969482422,-205.718994140625 126.86299896240234,-202.17799377441406 C130.40699768066406,-198.63299560546875 136.156005859375,-198.63299560546875 139.7050018310547,-202.17799377441406 C143.2480010986328,-205.718994140625 148.99899291992188,-205.718994140625 152.54800415039062,-202.17799377441406 C156.08799743652344,-198.63299560546875 161.83900451660156,-198.63299560546875 165.38299560546875,-202.17799377441406 C168.9239959716797,-205.718994140625 174.67599487304688,-205.718994140625 178.2169952392578,-202.17799377441406"></path></g><g opacity="1" transform="matrix(1,0,0,1,0,0)"><g opacity="1" transform="matrix(1,0,0,1,0,0)"><path fill="url(#__lottie_element_24)" fill-opacity="0.24652985042165307" d=" M54.057098388671875,-86.14900207519531 C52.44009780883789,-82.23500061035156 103.13700103759766,-249.2989959716797 103.13700103759766,-241.88299560546875 C103.13700103759766,-241.88299560546875 117.14399719238281,-241.88299560546875 117.14399719238281,-241.88299560546875 C117.14399719238281,-241.88299560546875 155.84210205078125,-80.01399993896484 153.88909912109375,-86.14900207519531 C153.88909912109375,-86.14900207519531 54.057098388671875,-86.14900207519531 54.057098388671875,-86.14900207519531z M209.15464782714844,-86.77103424072266 C207.5376434326172,-82.85704040527344 210.677001953125,-249.2989959716797 210.677001953125,-241.88299560546875 C210.677001953125,-241.88299560546875 224.68299865722656,-241.88299560546875 224.68299865722656,-241.88299560546875 C224.68299865722656,-241.88299560546875 310.9406433105469,-80.63603973388672 308.9876403808594,-86.77103424072266 C308.9876403808594,-86.77103424072266 209.15464782714844,-86.77103424072266 209.15464782714844,-86.77103424072266z M-177.18386840820312,-86.4489974975586 C-178.80087280273438,-82.53500366210938 -111.48799896240234,-249.1999969482422 -111.48799896240234,-241.78399658203125 C-111.48799896240234,-241.78399658203125 -97.48100280761719,-241.78399658203125 -97.48100280761719,-241.78399658203125 C-97.48100280761719,-241.78399658203125 -75.39887237548828,-80.31500244140625 -77.35187530517578,-86.4489974975586 C-77.35187530517578,-86.4489974975586 -177.18386840820312,-86.4489974975586 -177.18386840820312,-86.4489974975586z M-46.88846206665039,-86.4489974975586 C-48.505462646484375,-82.53500366210938 -3.947999954223633,-249.1999969482422 -3.947999954223633,-241.78399658203125 C-3.947999954223633,-241.78399658203125 10.057999610900879,-241.78399658203125 10.057999610900879,-241.78399658203125 C10.057999610900879,-241.78399658203125 54.89653778076172,-80.31500244140625 52.943538665771484,-86.4489974975586 C52.943538665771484,-86.4489974975586 -46.88846206665039,-86.4489974975586 -46.88846206665039,-86.4489974975586z"></path></g></g></g><g transform="matrix(1,0,0,1,346,343)" opacity="1" style="display: block;"><g opacity="1" transform="matrix(0.999544620513916,-0.030176153406500816,0.030176153406500816,0.999544620513916,-3.224853515625,-5.686103820800781)"><g opacity="1" transform="matrix(1,0,0,1,0,0)"><path fill="rgb(205,211,247)" fill-opacity="1" d=" M-191.43899536132812,111.45899963378906 C-231.08799743652344,97.22699737548828 -261.093994140625,122.79199981689453 -271.2250061035156,171.35899353027344 C-232.8730010986328,177.05299377441406 -187.2209930419922,157.3179931640625 -191.43899536132812,111.45899963378906z"></path></g><g opacity="1" transform="matrix(1,0,0,1,0,0)"><path stroke-linecap="round" stroke-linejoin="round" fill-opacity="0" stroke="rgb(186,191,230)" stroke-opacity="1" stroke-width="2.071" d=" M-191.43899536132812,111.45899963378906 C-204.97500610351562,122.88800048828125 -241.1230010986328,146.25900268554688 -261.8009948730469,163.56399536132812"></path></g></g><g opacity="1" transform="matrix(0.9981278777122498,-0.06116160377860069,0.06116160377860069,0.9981278777122498,-6.8925018310546875,-11.175743103027344)"><g opacity="1" transform="matrix(1,0,0,1,0,0)"><path fill="rgb(232,236,246)" fill-opacity="1" d=" M-187.81700134277344,107.15699768066406 C-190.86700439453125,45.6870002746582 -242.18800354003906,19.55500030517578 -313.3840026855469,33.145999908447266 C-299.54400634765625,88.0719985961914 -247.30599975585938,138.5800018310547 -187.81700134277344,107.15699768066406z"></path></g><g opacity="1" transform="matrix(1,0,0,1,0,0)"><path stroke-linecap="round" stroke-linejoin="round" fill-opacity="0" stroke="rgb(205,211,247)" stroke-opacity="1" stroke-width="2.071" d=" M-187.81700134277344,107.15699768066406 C-210.82699584960938,95.31099700927734 -262.635009765625,59.665000915527344 -297.58099365234375,41.486000061035156"></path></g></g><g opacity="1" transform="matrix(0.9996293783187866,0.02722322568297386,-0.02722322568297386,0.9996293783187866,4.406494140625,-3.6702880859375)"><path fill="rgb(232,236,246)" fill-opacity="1" d=" M134.697998046875,155.5500030517578 C129.56700134277344,153.32699584960938 115.99099731445312,102.15799713134766 125.51499938964844,98.947998046875 C132.93099975585938,96.4489974975586 135.76600646972656,104.33799743652344 136.572998046875,107.28099822998047 C137.843994140625,111.91999816894531 140.1790008544922,123.2750015258789 143.42999267578125,121.80000305175781 C149.31500244140625,119.13300323486328 139.77699279785156,91.15599822998047 137.87100219726562,84.1989974975586 C135.96299743652344,77.24199676513672 134.13299560546875,63.215999603271484 139.41900634765625,57.30799865722656 C144.70399475097656,51.4010009765625 147.52499389648438,49.62099838256836 150.1929931640625,61.97999954223633 C152.86000061035156,74.33799743652344 155.10400390625,99.32599639892578 160.55999755859375,91.93399810791016 C166.01300048828125,84.54199981689453 159.79600524902344,65.53199768066406 160.19700622558594,53.340999603271484 C160.59500122070312,41.150001525878906 165.45899963378906,18.094999313354492 172.7519989013672,23.576000213623047 C179.27499389648438,28.47800064086914 173.02000427246094,63.922000885009766 179.0399932861328,62.27199935913086 C183.85800170898438,60.952999114990234 181.91000366210938,50.698001861572266 183.87399291992188,34.76900100708008 C185.83799743652344,18.84000015258789 187.8520050048828,3.825000047683716 197.35299682617188,4.176000118255615 C204.98300170898438,4.459000110626221 201.58900451660156,14.378999710083008 200.63800048828125,22.982999801635742 C199.68600463867188,31.586000442504883 198.81399536132812,43.62099838256836 203.0330047607422,41.16999816894531 C207.25,38.71900177001953 207.86599731445312,-3.818000078201294 220.27499389648438,-6.132999897003174 C228.48699951171875,-7.664000034332275 225.4929962158203,1.3550000190734863 224.94400024414062,11.430999755859375 C224.3979949951172,21.506000518798828 224.9499969482422,25.0939998626709 226.95799255371094,24.54400062561035 C228.96400451660156,23.993999481201172 231.89300537109375,10.534000396728516 233.3070068359375,3.0980000495910645 C234.72000122070312,-4.3379998207092285 239.27000427246094,-14.501999855041504 246.19500732421875,-13.378999710083008 C253.1179962158203,-12.255999565124512 249.62899780273438,-0.5839999914169312 247.34800720214844,3.421999931335449 C245.06500244140625,7.427999973297119 244.5850067138672,12.234000205993652 245.77699279785156,12.913999557495117 C246.97000122070312,13.593999862670898 255.43499755859375,0.9179999828338623 261.2460021972656,6.374000072479248 C267.0570068359375,11.829999923706055 257.7860107421875,23.143999099731445 250.16000366210938,25.233999252319336 C242.53399658203125,27.323999404907227 232.30499267578125,30.413999557495117 233.07400512695312,33.222999572753906 C233.84500122070312,36.03300094604492 242.677001953125,33.6150016784668 249.63299560546875,31.707000732421875 C256.5889892578125,29.799999237060547 259.79400634765625,30.648000717163086 260.3080139160156,32.52199935913086 C262.01800537109375,38.763999938964844 254.40899658203125,46.50899887084961 249.32400512695312,47.9010009765625 C244.24099731445312,49.29499816894531 214.71499633789062,53.35900115966797 215.8520050048828,57.50699996948242 C216.98899841308594,61.65399932861328 227.8990020751953,58.95199966430664 233.52000427246094,57.4109992980957 C239.13800048828125,55.87099838256836 252.25,52.277000427246094 254.15699768066406,59.23500061035156 C256.06298828125,66.19300079345703 239.4290008544922,74.77899932861328 228.54299926757812,77.04399871826172 C217.656005859375,79.30799865722656 199.73800659179688,81.62799835205078 200.61700439453125,84.83999633789062 C201.4969940185547,88.05000305175781 216.18299865722656,88.62799835205078 223.0070037841797,86.75900268554688 C229.83099365234375,84.88899993896484 241.05099487304688,78.072998046875 243.3979949951172,86.63600158691406 C245.74400329589844,95.1989974975586 235.8040008544922,99.79399871826172 222.40499877929688,103.46499633789062 C216.8090057373047,105 202.91299438476562,108.65399932861328 194.0959930419922,105.96299743652344 C184.0590057373047,102.89800262451172 178.5659942626953,103.02999877929688 177.75599670410156,105.34500122070312 C176.1439971923828,109.95899963378906 185.3300018310547,111.46700286865234 192.11900329589844,111.04499816894531 C198.90699768066406,110.62300109863281 219.91600036621094,108.03099822998047 218.81100463867188,118.69100189208984 C217.70599365234375,129.35000610351562 200.25399780273438,127.08300018310547 193.1490020751953,126.87300109863281 C186.04299926757812,126.66300201416016 161.072998046875,123.7249984741211 160.42100524902344,129.22500610351562 C159.77099609375,134.7259979248047 173.32400512695312,132.73800659179688 177.593994140625,132.5749969482422 C181.86300659179688,132.41099548339844 190.82000732421875,134.91900634765625 188.83200073242188,138.41400146484375 C186.83900451660156,141.9080047607422 143.8459930419922,159.51499938964844 134.697998046875,155.5500030517578z"></path></g><g opacity="1" transform="matrix(0.9998690485954285,0.016184402629733086,-0.016184402629733086,0.9998690485954285,2.6840972900390625,-3.6685638427734375)"><g opacity="1" transform="matrix(1,0,0,1,0,0)"><path stroke-linecap="round" stroke-linejoin="round" fill-opacity="0" stroke="rgb(205,211,247)" stroke-opacity="1" stroke-width="2.071" d=" M266.35400390625,94.61299896240234 C255.73500061035156,114.00700378417969 265.0299987792969,121.97200012207031 271.85699462890625,122.38300323486328 C272.84600830078125,130.83399963378906 283.53399658203125,137.53399658203125 297.47601318359375,130.47300720214844"></path></g><g opacity="1" transform="matrix(1,0,0,1,0,0)"><path stroke-linecap="round" stroke-linejoin="round" fill-opacity="0" stroke="rgb(205,211,247)" stroke-opacity="1" stroke-width="2.071" d=" M275.2090148925781,93.5739974975586 C263.6969909667969,104.05999755859375 264.45098876953125,117.19499969482422 272.531005859375,121.72699737548828 C275.2250061035156,127.79299926757812 286.8489990234375,133.49000549316406 300.8290100097656,123.31400299072266"></path></g><g opacity="1" transform="matrix(1,0,0,1,0,0)"><path stroke-linecap="round" stroke-linejoin="round" fill-opacity="0" stroke="rgb(205,211,247)" stroke-opacity="1" stroke-width="2.071" d=" M287.1579895019531,95.80500030517578 C282.37200927734375,97.0250015258789 264.2250061035156,111.21399688720703 273.5,120.73699951171875 C275.92498779296875,126.8270034790039 292.4440002441406,126.13999938964844 302.75,116.55500030517578"></path></g><g opacity="1" transform="matrix(1,0,0,1,0,0)"><path stroke-linecap="round" stroke-linejoin="round" fill-opacity="0" stroke="rgb(205,211,247)" stroke-opacity="1" stroke-width="2.071" d=" M295.2550048828125,118.06199645996094 C292.3909912109375,119.67500305175781 280.70599365234375,121.54900360107422 273.5,120.73699951171875 C274.9419860839844,114.39900207519531 282.5889892578125,104.96199798583984 286.14599609375,103.03700256347656"></path></g><g opacity="1" transform="matrix(1,0,0,1,0,0)"><path stroke-linecap="round" stroke-linejoin="round" fill-opacity="0" stroke="rgb(205,211,247)" stroke-opacity="1" stroke-width="2.071" d=" M273.5,120.73699951171875 C280.3789978027344,119.4229965209961 287.8739929199219,117.91699981689453 297.31298828125,111.62200164794922"></path></g><g opacity="1" transform="matrix(1,0,0,1,0,0)"><path stroke-linecap="round" stroke-linejoin="round" fill-opacity="0" stroke="rgb(205,211,247)" stroke-opacity="1" stroke-width="2.071" d=" M297.9530029296875,104.75199890136719 C292.34600830078125,105.68699645996094 278.74700927734375,115.04900360107422 275.18798828125,120.41100311279297"></path></g><g opacity="1" transform="matrix(1,0,0,1,0,0)"><path stroke-linecap="round" stroke-linejoin="round" fill-opacity="0" stroke="rgb(205,211,247)" stroke-opacity="1" stroke-width="2.071" d=" M271.85699462890625,122.38300323486328 C266.8689880371094,125.06900024414062 240.46800231933594,148.33599853515625 231.3769989013672,159.63400268554688"></path></g></g><g opacity="1" transform="matrix(0.9997292160987854,-0.023269711062312126,0.023269711062312126,0.9997292160987854,-3.4276695251464844,1.4362640380859375)"><g opacity="1" transform="matrix(1,0,0,1,0,0)"><path fill="rgb(221,226,247)" fill-opacity="1" d=" M-33.51300048828125,65.75700378417969 C-31.94300079345703,51.93299865722656 -43.65299987792969,45.999000549316406 -50.882999420166016,43.069000244140625 C-51.042999267578125,47.33399963378906 -50.676998138427734,64.62899780273438 -33.51300048828125,65.75700378417969z"></path></g><g opacity="1" transform="matrix(1,0,0,1,0,0)"><path stroke-linecap="round" stroke-linejoin="round" fill-opacity="0" stroke="rgb(221,226,247)" stroke-opacity="1" stroke-width="2.071" d=" M58.70000076293945,146.33399963378906 C32.49100112915039,133.99600219726562 -5.840000152587891,105.447998046875 -34.882999420166016,64.11499786376953"></path></g><g opacity="1" transform="matrix(1,0,0,1,0,0)"><path fill="rgb(221,226,247)" fill-opacity="1" d=" M38.87300109863281,142.63699340820312 C10.807000160217285,141.34100341796875 5.13100004196167,161.18600463867188 0.20200000703334808,176.15199279785156 C8.821000099182129,175.8979949951172 38.922000885009766,177.3719940185547 38.87300109863281,142.63699340820312z"></path></g><g opacity="1" transform="matrix(1,0,0,1,0,0)"><path fill="rgb(221,226,247)" fill-opacity="1" d=" M16.04199981689453,128.36700439453125 C-5.521999835968018,121.75499725341797 -13.89900016784668,136.05099487304688 -20.719999313354492,146.70199584960938 C-13.968999862670898,148.22500610351562 9.140000343322754,155.38400268554688 16.04199981689453,128.36700439453125z"></path></g><g opacity="1" transform="matrix(1,0,0,1,0,0)"><path fill="rgb(221,226,247)" fill-opacity="1" d=" M-5.242000102996826,108.20800018310547 C-21.93000030517578,98.34500122070312 -31.804000854492188,108.6050033569336 -39.64699935913086,116.13300323486328 C-34.31399917602539,118.76300048828125 -16.444000244140625,129.3939971923828 -5.242000102996826,108.20800018310547z"></path></g><g opacity="1" transform="matrix(1,0,0,1,0,0)"><path fill="rgb(221,226,247)" fill-opacity="1" d=" M-24.17799949645996,87.10900115966797 C-32.43000030517578,78.33200073242188 -40.10100173950195,82.74700164794922 -46.084999084472656,85.88200378417969 C-43.35599899291992,88.3759994506836 -34.53200149536133,97.81600189208984 -24.17799949645996,87.10900115966797z"></path></g><g opacity="1" transform="matrix(1,0,0,1,0,0)"><path fill="rgb(221,226,247)" fill-opacity="1" d=" M44.43600082397461,129.0709991455078 C29.48900032043457,109.29299926757812 41.097999572753906,95.26100158691406 49.52799987792969,84.20600128173828 C53.64500045776367,90.60600280761719 69.73799896240234,111.77300262451172 44.43600082397461,129.0709991455078z"></path></g><g opacity="1" transform="matrix(1,0,0,1,0,0)"><path fill="rgb(221,226,247)" fill-opacity="1" d=" M19.89699935913086,113.08699798583984 C4.505000114440918,98.24099731445312 12.512999534606934,84.7239990234375 18.21299934387207,74.1709976196289 C22.577999114990234,79.07099914550781 39.13600158691406,94.94999694824219 19.89699935913086,113.08699798583984z"></path></g><g opacity="1" transform="matrix(1,0,0,1,0,0)"><path fill="rgb(221,226,247)" fill-opacity="1" d=" M-6.138999938964844,89.91699981689453 C-13.4399995803833,77.25900268554688 -5.625999927520752,69.89800262451172 0.10999999940395355,64.04900360107422 C2.049999952316284,68.08999633789062 9.920000076293945,81.64299774169922 -6.138999938964844,89.91699981689453z"></path></g><g opacity="1" transform="matrix(1,0,0,1,0,0)"><path fill="rgb(221,226,247)" fill-opacity="1" d=" M-22.58300018310547,73.07099914550781 C-28.118000030517578,66.60099792480469 -24.42799949645996,61.55099868774414 -21.767000198364258,57.58700180053711 C-20.224000930786133,59.69499969482422 -14.267999649047852,66.61499786376953 -22.58300018310547,73.07099914550781z"></path></g></g><g opacity="1" transform="matrix(1,0,0,1,0,0)"><g opacity="1" transform="matrix(1,0,0,1,0,0)"><path fill="rgb(221,226,247)" fill-opacity="1" d=" M134.2010040283203,188.18899536132812 C123.69100189208984,181.28599548339844 97.79199981689453,130.39999389648438 118.1520004272461,120.53700256347656 C137.45199584960938,111.19000244140625 143.572998046875,150.99400329589844 144.7220001220703,156.16299438476562 C148.74400329589844,136.63099670410156 154.00799560546875,117.67400360107422 166.88699340820312,121.12100219726562 C179.76499938964844,124.56700134277344 166.88699340820312,152.14300537109375 166.88699340820312,152.14300537109375 C178.61599731445312,137.20700073242188 207.8470001220703,114.21900177001953 221.15199279785156,121.11900329589844 C234.45799255371094,128.01800537109375 194.12600708007812,152.76800537109375 194.12600708007812,152.76800537109375 C212.45399475097656,142.3699951171875 267.2250061035156,128.3719940185547 212.52499389648438,154.79800415039062 C237.56900024414062,146.69700622558594 286.40899658203125,142.7209930419922 232.1179962158203,159.61900329589844 C264.7950134277344,156.78199768066406 281.3800048828125,161.2310028076172 281.9549865722656,165.8280029296875 C282.52899169921875,170.4239959716797 272.94500732421875,176.92599487304688 230.71600341796875,177.9929962158203 C251.572998046875,181.44000244140625 262.0350036621094,186.31900024414062 256.6600036621094,188.18899536132812 C248.12600708007812,188.18899536132812 134.2010040283203,188.18899536132812 134.2010040283203,188.18899536132812z"></path></g><g opacity="1" transform="matrix(1,0,0,1,0,0)"><path fill="rgb(255,255,255)" fill-opacity="1" d=" M204.17999267578125,163.6280059814453 C204.17999267578125,162.6909942626953 204.93899536132812,161.93299865722656 205.875,161.93299865722656 C206.81199645996094,161.93299865722656 207.5709991455078,162.6909942626953 207.5709991455078,163.6280059814453 C207.5709991455078,164.56399536132812 206.81199645996094,165.32400512695312 205.875,165.32400512695312 C204.93899536132812,165.32400512695312 204.17999267578125,164.56399536132812 204.17999267578125,163.6280059814453z"></path></g><g opacity="1" transform="matrix(1,0,0,1,0,0)"><path fill="rgb(255,255,255)" fill-opacity="1" d=" M145.9429931640625,173.61199951171875 C145.9429931640625,172.16900634765625 147.11199951171875,171.00100708007812 148.5540008544922,171.00100708007812 C149.9969940185547,171.00100708007812 151.1649932861328,172.16900634765625 151.1649932861328,173.61199951171875 C151.1649932861328,175.05299377441406 149.9969940185547,176.22300720214844 148.5540008544922,176.22300720214844 C147.11199951171875,176.22300720214844 145.9429931640625,175.05299377441406 145.9429931640625,173.61199951171875z"></path></g><g opacity="1" transform="matrix(1,0,0,1,0,0)"><path fill="rgb(255,255,255)" fill-opacity="1" d=" M179.9340057373047,154.27000427246094 C179.9340057373047,153.03900146484375 180.9320068359375,152.04299926757812 182.16299438476562,152.04299926757812 C183.3939971923828,152.04299926757812 184.39199829101562,153.03900146484375 184.39199829101562,154.27000427246094 C184.39199829101562,155.50100708007812 183.3939971923828,156.5 182.16299438476562,156.5 C180.9320068359375,156.5 179.9340057373047,155.50100708007812 179.9340057373047,154.27000427246094z"></path></g></g><g opacity="1" transform="matrix(0.9996045827865601,-0.02811906673014164,0.02811906673014164,0.9996045827865601,-1.3994903564453125,-5.520870208740234)"><g opacity="1" transform="matrix(1,0,0,1,0,0)"><path fill="rgb(205,211,247)" fill-opacity="1" d=" M-246.21800231933594,-1.3300000429153442 C-252.77000427246094,-3.256999969482422 -258.7239990234375,-7.3460001945495605 -257.24798583984375,-11.317000389099121 C-255.8419952392578,-15.098999977111816 -249.10899353027344,-14.401000022888184 -242.91400146484375,-12.138999938964844 C-245.02200317382812,-17.676000595092773 -245.3159942626953,-23.358999252319336 -241.85800170898438,-24.718000411987305 C-235.072998046875,-27.38800048828125 -227.56500244140625,-7.3520002365112305 -229.6580047607422,-1.8420000076293945 C-231.2449951171875,5.815000057220459 -250.03199768066406,14.854000091552734 -253.18299865722656,8.256999969482422 C-254.68099975585938,5.123000144958496 -251.04200744628906,1.465000033378601 -246.21800231933594,-1.3300000429153442z"></path></g><g opacity="1" transform="matrix(1,0,0,1,0,0)"><path stroke-linecap="round" stroke-linejoin="round" fill-opacity="0" stroke="rgb(221,226,247)" stroke-opacity="1" stroke-width="2.071" d=" M-229.6580047607422,-1.8420000076293945 C-221.61000061035156,0.8700000047683716 -202.7689971923828,21.31999969482422 -195.16700744628906,46.9109992980957"></path></g><g opacity="1" transform="matrix(1,0,0,1,0,0)"><path fill="rgb(221,226,247)" fill-opacity="1" d=" M-236.52099609375,1.559999942779541 C-236.3470001220703,0.4000000059604645 -235.22999572753906,-0.5699999928474426 -234.1529998779297,-1.3569999933242798 C-235.83900451660156,-2.117000102996826 -237.79100036621094,-4.263000011444092 -236.7100067138672,-5.973999977111816 C-235.93899536132812,-7.195000171661377 -233.78599548339844,-6.043000221252441 -232.0709991455078,-4.747000217437744 C-232.1750030517578,-5.390999794006348 -232.2949981689453,-6.135000228881836 -232.20899963378906,-6.991000175476074 C-231.59300231933594,-13.072999954223633 -227.2729949951172,-4.428999900817871 -228.802001953125,-1.5069999694824219 C-229.13099670410156,-0.8790000081062317 -229.95700073242188,0.23600000143051147 -230.91900634765625,1.3170000314712524 C-232.93800354003906,3.5880000591278076 -236.85699462890625,3.802999973297119 -236.52099609375,1.559999942779541z"></path></g></g></g><g transform="matrix(1,0,0,1,346,343)" opacity="1" style="display: block;"><g opacity="1" transform="matrix(1,0,0,1,0,0)"><path fill="rgb(205,211,247)" fill-opacity="1" d=" M-34.86800003051758,-5.374000072479248 C-35.4370002746582,-2.0820000171661377 -39.88100051879883,-4.2769999504089355 -43.43000030517578,-7.826000213623047 C-47.034000396728516,-11.428999900817871 -49.17399978637695,-15.817999839782715 -45.88199996948242,-16.386999130249023 C-42.59000015258789,-16.95599937438965 -41.04600143432617,-18.826000213623047 -42.59000015258789,-20.3700008392334 C-44.13399887084961,-21.913999557495117 -47.89099884033203,-25.959999084472656 -50.56399917602539,-23.28700065612793 C-54.13199996948242,-19.7189998626709 -54.78200149536133,-12.729000091552734 -46.65399932861328,-4.60099983215332 C-38.5260009765625,3.5269999504089355 -31.535999298095703,2.877000093460083 -27.968000411987305,-0.6909999847412109 C-25.295000076293945,-3.364000082015991 -29.340999603271484,-7.120999813079834 -30.885000228881836,-8.664999961853027 C-32.42900085449219,-10.208999633789062 -34.29899978637695,-8.666000366210938 -34.86800003051758,-5.374000072479248z"></path></g></g><g fill="rgb(206,211,248)" font-size="31.0675601959229" font-family="Montserrat" font-style="normal" font-weight="400" aria-label="+1 234 567 890" transform="matrix(1,0,0,1,432.8909912109375,342.1289978027344)" opacity="1" style="display: block;"><g stroke-linecap="butt" stroke-linejoin="round" stroke-miterlimit="4" transform="matrix(1,0,0,1,-111.53253936767578,0)" opacity="1" fill="rgb(206,211,248)" style="display: inherit;"><g transform="scale(0.310675601959229,0.310675601959229)"><g transform="matrix(1,0,0,1,0,0)" opacity="1" style="display: block;"><path d=" M50.5,-37.900001525878906 C50.5,-37.900001525878906 31.899999618530273,-37.900001525878906 31.899999618530273,-37.900001525878906 C31.899999618530273,-37.900001525878906 31.899999618530273,-56.20000076293945 31.899999618530273,-56.20000076293945 C31.899999618530273,-56.20000076293945 25.600000381469727,-56.20000076293945 25.600000381469727,-56.20000076293945 C25.600000381469727,-56.20000076293945 25.600000381469727,-37.900001525878906 25.600000381469727,-37.900001525878906 C25.600000381469727,-37.900001525878906 7,-37.900001525878906 7,-37.900001525878906 C7,-37.900001525878906 7,-32 7,-32 C7,-32 25.600000381469727,-32 25.600000381469727,-32 C25.600000381469727,-32 25.600000381469727,-13.800000190734863 25.600000381469727,-13.800000190734863 C25.600000381469727,-13.800000190734863 31.899999618530273,-13.800000190734863 31.899999618530273,-13.800000190734863 C31.899999618530273,-13.800000190734863 31.899999618530273,-32 31.899999618530273,-32 C31.899999618530273,-32 50.5,-32 50.5,-32 C50.5,-32 50.5,-37.900001525878906 50.5,-37.900001525878906z"></path><g opacity="1" transform="matrix(1,0,0,1,0,0)"></g></g></g></g><g stroke-linecap="butt" stroke-linejoin="round" stroke-miterlimit="4" transform="matrix(1,0,0,1,-93.60655975341797,0)" opacity="1" fill="rgb(206,211,248)" style="display: inherit;"><g transform="scale(0.310675601959229,0.310675601959229)"><g transform="matrix(1,0,0,1,0,0)" opacity="1" style="display: block;"><path d=" M0.8999999761581421,-70 C0.8999999761581421,-70 0.8999999761581421,-63.599998474121094 0.8999999761581421,-63.599998474121094 C0.8999999761581421,-63.599998474121094 17.399999618530273,-63.599998474121094 17.399999618530273,-63.599998474121094 C17.399999618530273,-63.599998474121094 17.399999618530273,0 17.399999618530273,0 C17.399999618530273,0 24.600000381469727,0 24.600000381469727,0 C24.600000381469727,0 24.600000381469727,-70 24.600000381469727,-70 C24.600000381469727,-70 0.8999999761581421,-70 0.8999999761581421,-70z"></path><g opacity="1" transform="matrix(1,0,0,1,0,0)"></g></g></g></g><g stroke-linecap="butt" stroke-linejoin="round" stroke-miterlimit="4" transform="matrix(1,0,0,1,-82.39117431640625,0)" opacity="1" fill="rgb(206,211,248)" style="display: inherit;"><g transform="scale(0.310675601959229,0.310675601959229)"><g style="display: none;"></g></g></g><g stroke-linecap="butt" stroke-linejoin="round" stroke-miterlimit="4" transform="matrix(1,0,0,1,-74.25146484375,0)" opacity="1" fill="rgb(206,211,248)" style="display: inherit;"><g transform="scale(0.310675601959229,0.310675601959229)"><g transform="matrix(1,0,0,1,0,0)" opacity="1" style="display: block;"><path d=" M14.5,-6.400000095367432 C14.5,-6.400000095367432 38.29999923706055,-29.799999237060547 38.29999923706055,-29.799999237060547 C42.76599884033203,-34.132999420166016 45.79999923706055,-37.965999603271484 47.400001525878906,-41.29999923706055 C49,-44.632999420166016 49.79999923706055,-48.099998474121094 49.79999923706055,-51.70000076293945 C49.79999923706055,-57.566001892089844 47.715999603271484,-62.18299865722656 43.54999923706055,-65.55000305175781 C39.382999420166016,-68.91600036621094 33.733001708984375,-70.5999984741211 26.600000381469727,-70.5999984741211 C21.266000747680664,-70.5999984741211 16.482999801635742,-69.73300170898438 12.25,-68 C8.015999794006348,-66.26599884033203 4.5329999923706055,-63.79999923706055 1.7999999523162842,-60.599998474121094 C1.7999999523162842,-60.599998474121094 6.900000095367432,-56.20000076293945 6.900000095367432,-56.20000076293945 C11.432999610900879,-61.400001525878906 17.799999237060547,-64 26,-64 C31.266000747680664,-64 35.316001892089844,-62.849998474121094 38.150001525878906,-60.54999923706055 C40.983001708984375,-58.25 42.400001525878906,-55.03300094604492 42.400001525878906,-50.900001525878906 C42.400001525878906,-48.233001708984375 41.75,-45.58300018310547 40.45000076293945,-42.95000076293945 C39.150001525878906,-40.316001892089844 36.66600036621094,-37.20000076293945 33,-33.599998474121094 C33,-33.599998474121094 3.9000000953674316,-5.099999904632568 3.9000000953674316,-5.099999904632568 C3.9000000953674316,-5.099999904632568 3.9000000953674316,0 3.9000000953674316,0 C3.9000000953674316,0 53,0 53,0 C53,0 53,-6.400000095367432 53,-6.400000095367432 C53,-6.400000095367432 14.5,-6.400000095367432 14.5,-6.400000095367432z"></path><g opacity="1" transform="matrix(1,0,0,1,0,0)"></g></g></g></g><g stroke-linecap="butt" stroke-linejoin="round" stroke-miterlimit="4" transform="matrix(1,0,0,1,-56.6050910949707,0)" opacity="1" fill="rgb(206,211,248)" style="display: inherit;"><g transform="scale(0.310675601959229,0.310675601959229)"><g transform="matrix(1,0,0,1,0,0)" opacity="1" style="display: block;"><path d=" M29,-40 C29,-40 48.79999923706055,-64.9000015258789 48.79999923706055,-64.9000015258789 C48.79999923706055,-64.9000015258789 48.79999923706055,-70 48.79999923706055,-70 C48.79999923706055,-70 3.799999952316284,-70 3.799999952316284,-70 C3.799999952316284,-70 3.799999952316284,-63.599998474121094 3.799999952316284,-63.599998474121094 C3.799999952316284,-63.599998474121094 39.599998474121094,-63.599998474121094 39.599998474121094,-63.599998474121094 C39.599998474121094,-63.599998474121094 20.200000762939453,-39.29999923706055 20.200000762939453,-39.29999923706055 C20.200000762939453,-39.29999923706055 20.200000762939453,-34 20.200000762939453,-34 C20.200000762939453,-34 25.200000762939453,-34 25.200000762939453,-34 C31.533000946044922,-34 36.26599884033203,-32.76599884033203 39.400001525878906,-30.299999237060547 C42.53300094604492,-27.83300018310547 44.099998474121094,-24.433000564575195 44.099998474121094,-20.100000381469727 C44.099998474121094,-15.699999809265137 42.53300094604492,-12.25 39.400001525878906,-9.75 C36.26599884033203,-7.25 31.83300018310547,-6 26.100000381469727,-6 C21.700000762939453,-6 17.56599998474121,-6.75 13.699999809265137,-8.25 C9.833000183105469,-9.75 6.732999801635742,-11.699999809265137 4.400000095367432,-14.100000381469727 C4.400000095367432,-14.100000381469727 0.8999999761581421,-8.399999618530273 0.8999999761581421,-8.399999618530273 C3.632999897003174,-5.665999889373779 7.25,-3.4830000400543213 11.75,-1.850000023841858 C16.25,-0.2160000056028366 21.033000946044922,0.6000000238418579 26.100000381469727,0.6000000238418579 C31.56599998474121,0.6000000238418579 36.20000076293945,-0.30000001192092896 40,-2.0999999046325684 C43.79999923706055,-3.9000000953674316 46.66600036621094,-6.349999904632568 48.599998474121094,-9.449999809265137 C50.53300094604492,-12.550000190734863 51.5,-16.100000381469727 51.5,-20.100000381469727 C51.5,-25.83300018310547 49.58300018310547,-30.482999801635742 45.75,-34.04999923706055 C41.91600036621094,-37.61600112915039 36.33300018310547,-39.599998474121094 29,-40z"></path><g opacity="1" transform="matrix(1,0,0,1,0,0)"></g></g></g></g><g stroke-linecap="butt" stroke-linejoin="round" stroke-miterlimit="4" transform="matrix(1,0,0,1,-39.23832702636719,0)" opacity="1" fill="rgb(206,211,248)" style="display: inherit;"><g transform="scale(0.310675601959229,0.310675601959229)"><g transform="matrix(1,0,0,1,0,0)" opacity="1" style="display: block;"><path d=" M64.69999694824219,-24.799999237060547 C64.69999694824219,-24.799999237060547 50.70000076293945,-24.799999237060547 50.70000076293945,-24.799999237060547 C50.70000076293945,-24.799999237060547 50.70000076293945,-41 50.70000076293945,-41 C50.70000076293945,-41 43.70000076293945,-41 43.70000076293945,-41 C43.70000076293945,-41 43.70000076293945,-24.799999237060547 43.70000076293945,-24.799999237060547 C43.70000076293945,-24.799999237060547 13.300000190734863,-24.799999237060547 13.300000190734863,-24.799999237060547 C13.300000190734863,-24.799999237060547 49.099998474121094,-70 49.099998474121094,-70 C49.099998474121094,-70 41.099998474121094,-70 41.099998474121094,-70 C41.099998474121094,-70 4,-23.600000381469727 4,-23.600000381469727 C4,-23.600000381469727 4,-18.399999618530273 4,-18.399999618530273 C4,-18.399999618530273 43.5,-18.399999618530273 43.5,-18.399999618530273 C43.5,-18.399999618530273 43.5,0 43.5,0 C43.5,0 50.70000076293945,0 50.70000076293945,0 C50.70000076293945,0 50.70000076293945,-18.399999618530273 50.70000076293945,-18.399999618530273 C50.70000076293945,-18.399999618530273 64.69999694824219,-18.399999618530273 64.69999694824219,-18.399999618530273 C64.69999694824219,-18.399999618530273 64.69999694824219,-24.799999237060547 64.69999694824219,-24.799999237060547z"></path><g opacity="1" transform="matrix(1,0,0,1,0,0)"></g></g></g></g><g stroke-linecap="butt" stroke-linejoin="round" stroke-miterlimit="4" transform="matrix(1,0,0,1,-18.702672958374023,0)" opacity="1" fill="rgb(206,211,248)" style="display: inherit;"><g transform="scale(0.310675601959229,0.310675601959229)"><g style="display: none;"></g></g></g><g stroke-linecap="butt" stroke-linejoin="round" stroke-miterlimit="4" transform="matrix(1,0,0,1,-10.562971115112305,0)" opacity="1" fill="rgb(206,211,248)" style="display: inherit;"><g transform="scale(0.310675601959229,0.310675601959229)"><g transform="matrix(1,0,0,1,0,0)" opacity="1" style="display: block;"><path d=" M23.600000381469727,-41.29999923706055 C23.600000381469727,-41.29999923706055 14.600000381469727,-41.29999923706055 14.600000381469727,-41.29999923706055 C14.600000381469727,-41.29999923706055 17,-63.599998474121094 17,-63.599998474121094 C17,-63.599998474121094 49,-63.599998474121094 49,-63.599998474121094 C49,-63.599998474121094 49,-70 49,-70 C49,-70 10.699999809265137,-70 10.699999809265137,-70 C10.699999809265137,-70 7.099999904632568,-34.900001525878906 7.099999904632568,-34.900001525878906 C7.099999904632568,-34.900001525878906 22,-34.900001525878906 22,-34.900001525878906 C30.465999603271484,-34.900001525878906 36.483001708984375,-33.66600036621094 40.04999923706055,-31.200000762939453 C43.61600112915039,-28.732999801635742 45.400001525878906,-25.100000381469727 45.400001525878906,-20.299999237060547 C45.400001525878906,-15.965999603271484 43.816001892089844,-12.5 40.650001525878906,-9.899999618530273 C37.483001708984375,-7.300000190734863 33,-6 27.200000762939453,-6 C22.799999237060547,-6 18.700000762939453,-6.75 14.899999618530273,-8.25 C11.100000381469727,-9.75 8.032999992370605,-11.699999809265137 5.699999809265137,-14.100000381469727 C5.699999809265137,-14.100000381469727 2.200000047683716,-8.399999618530273 2.200000047683716,-8.399999618530273 C4.933000087738037,-5.665999889373779 8.550000190734863,-3.4830000400543213 13.050000190734863,-1.850000023841858 C17.549999237060547,-0.2160000056028366 22.299999237060547,0.6000000238418579 27.299999237060547,0.6000000238418579 C32.83300018310547,0.6000000238418579 37.5,-0.3160000145435333 41.29999923706055,-2.1500000953674316 C45.099998474121094,-3.9830000400543213 47.95000076293945,-6.5 49.849998474121094,-9.699999809265137 C51.75,-12.899999618530273 52.70000076293945,-16.533000946044922 52.70000076293945,-20.600000381469727 C52.70000076293945,-27.132999420166016 50.382999420166016,-32.215999603271484 45.75,-35.849998474121094 C41.11600112915039,-39.483001708984375 33.733001708984375,-41.29999923706055 23.600000381469727,-41.29999923706055z"></path><g opacity="1" transform="matrix(1,0,0,1,0,0)"></g></g></g></g><g stroke-linecap="butt" stroke-linejoin="round" stroke-miterlimit="4" transform="matrix(1,0,0,1,6.865931510925293,0)" opacity="1" fill="rgb(206,211,248)" style="display: inherit;"><g transform="scale(0.310675601959229,0.310675601959229)"><g transform="matrix(1,0,0,1,0,0)" opacity="1" style="display: block;"><path d=" M33.599998474121094,-5.5 C29.732999801635742,-5.5 26.399999618530273,-6.199999809265137 23.600000381469727,-7.599999904632568 C20.799999237060547,-9 18.683000564575195,-10.833000183105469 17.25,-13.100000381469727 C15.815999984741211,-15.366000175476074 15.100000381469727,-17.83300018310547 15.100000381469727,-20.5 C15.100000381469727,-23.365999221801758 15.866000175476074,-25.965999603271484 17.399999618530273,-28.299999237060547 C18.933000564575195,-30.632999420166016 21.049999237060547,-32.465999603271484 23.75,-33.79999923706055 C26.450000762939453,-35.132999420166016 29.56599998474121,-35.79999923706055 33.099998474121094,-35.79999923706055 C38.5,-35.79999923706055 42.78300094604492,-34.43299865722656 45.95000076293945,-31.700000762939453 C49.11600112915039,-28.965999603271484 50.70000076293945,-25.299999237060547 50.70000076293945,-20.700000762939453 C50.70000076293945,-16.100000381469727 49.11600112915039,-12.416000366210938 45.95000076293945,-9.649999618530273 C42.78300094604492,-6.882999897003174 38.66600036621094,-5.5 33.599998474121094,-5.5z M34.20000076293945,-41.900001525878906 C29.266000747680664,-41.900001525878906 24.899999618530273,-40.849998474121094 21.100000381469727,-38.75 C17.299999237060547,-36.650001525878906 14.532999992370605,-33.70000076293945 12.800000190734863,-29.899999618530273 C12.600000381469727,-32.03300094604492 12.5,-33.93299865722656 12.5,-35.599998474121094 C12.5,-44.93299865722656 14.699999809265137,-52.04999923706055 19.100000381469727,-56.95000076293945 C23.5,-61.849998474121094 29.56599998474121,-64.30000305175781 37.29999923706055,-64.30000305175781 C43.03300094604492,-64.30000305175781 47.566001892089844,-63.20000076293945 50.900001525878906,-61 C50.900001525878906,-61 53.79999923706055,-66.80000305175781 53.79999923706055,-66.80000305175781 C49.66600036621094,-69.33300018310547 44.132999420166016,-70.5999984741211 37.20000076293945,-70.5999984741211 C30.799999237060547,-70.5999984741211 25.200000762939453,-69.21600341796875 20.399999618530273,-66.44999694824219 C15.600000381469727,-63.68299865722656 11.866000175476074,-59.599998474121094 9.199999809265137,-54.20000076293945 C6.5329999923706055,-48.79999923706055 5.199999809265137,-42.20000076293945 5.199999809265137,-34.400001525878906 C5.199999809265137,-23.266000747680664 7.665999889373779,-14.649999618530273 12.600000381469727,-8.550000190734863 C17.533000946044922,-2.450000047683716 24.632999420166016,0.6000000238418579 33.900001525878906,0.6000000238418579 C38.43299865722656,0.6000000238418579 42.51599884033203,-0.28299999237060547 46.150001525878906,-2.049999952316284 C49.78300094604492,-3.815999984741211 52.632999420166016,-6.333000183105469 54.70000076293945,-9.600000381469727 C56.76599884033203,-12.866000175476074 57.79999923706055,-16.632999420166016 57.79999923706055,-20.899999618530273 C57.79999923706055,-25.100000381469727 56.79999923706055,-28.783000946044922 54.79999923706055,-31.950000762939453 C52.79999923706055,-35.11600112915039 50.01599884033203,-37.566001892089844 46.45000076293945,-39.29999923706055 C42.882999420166016,-41.03300094604492 38.79999923706055,-41.900001525878906 34.20000076293945,-41.900001525878906z"></path><g opacity="1" transform="matrix(1,0,0,1,0,0)"></g></g></g></g><g stroke-linecap="butt" stroke-linejoin="round" stroke-miterlimit="4" transform="matrix(1,0,0,1,25.786075592041016,0)" opacity="1" fill="rgb(206,211,248)" style="display: inherit;"><g transform="scale(0.310675601959229,0.310675601959229)"><g transform="matrix(1,0,0,1,0,0)" opacity="1" style="display: block;"><path d=" M3.200000047683716,-70 C3.200000047683716,-70 3.200000047683716,-50.5 3.200000047683716,-50.5 C3.200000047683716,-50.5 10.300000190734863,-50.5 10.300000190734863,-50.5 C10.300000190734863,-50.5 10.300000190734863,-63.599998474121094 10.300000190734863,-63.599998474121094 C10.300000190734863,-63.599998474121094 46.29999923706055,-63.599998474121094 46.29999923706055,-63.599998474121094 C46.29999923706055,-63.599998474121094 17.5,0 17.5,0 C17.5,0 25.299999237060547,0 25.299999237060547,0 C25.299999237060547,0 54.599998474121094,-64.9000015258789 54.599998474121094,-64.9000015258789 C54.599998474121094,-64.9000015258789 54.599998474121094,-70 54.599998474121094,-70 C54.599998474121094,-70 3.200000047683716,-70 3.200000047683716,-70z"></path><g opacity="1" transform="matrix(1,0,0,1,0,0)"></g></g></g></g><g stroke-linecap="butt" stroke-linejoin="round" stroke-miterlimit="4" transform="matrix(1,0,0,1,44.08487319946289,0)" opacity="1" fill="rgb(206,211,248)" style="display: inherit;"><g transform="scale(0.310675601959229,0.310675601959229)"><g style="display: none;"></g></g></g><g stroke-linecap="butt" stroke-linejoin="round" stroke-miterlimit="4" transform="matrix(1,0,0,1,52.224571228027344,0)" opacity="1" fill="rgb(206,211,248)" style="display: inherit;"><g transform="scale(0.310675601959229,0.310675601959229)"><g transform="matrix(1,0,0,1,0,0)" opacity="1" style="display: block;"><path d=" M31.799999237060547,-5.5 C25.600000381469727,-5.5 20.766000747680664,-6.75 17.299999237060547,-9.25 C13.833000183105469,-11.75 12.100000381469727,-15.199999809265137 12.100000381469727,-19.600000381469727 C12.100000381469727,-23.933000564575195 13.850000381469727,-27.350000381469727 17.350000381469727,-29.850000381469727 C20.850000381469727,-32.349998474121094 25.666000366210938,-33.599998474121094 31.799999237060547,-33.599998474121094 C38,-33.599998474121094 42.849998474121094,-32.349998474121094 46.349998474121094,-29.850000381469727 C49.849998474121094,-27.350000381469727 51.599998474121094,-23.933000564575195 51.599998474121094,-19.600000381469727 C51.599998474121094,-15.265999794006348 49.849998474121094,-11.833000183105469 46.349998474121094,-9.300000190734863 C42.849998474121094,-6.765999794006348 38,-5.5 31.799999237060547,-5.5z M14.5,-51.900001525878906 C14.5,-55.76599884033203 16.049999237060547,-58.83300018310547 19.149999618530273,-61.099998474121094 C22.25,-63.36600112915039 26.465999603271484,-64.5 31.799999237060547,-64.5 C37.066001892089844,-64.5 41.28300094604492,-63.36600112915039 44.45000076293945,-61.099998474121094 C47.61600112915039,-58.83300018310547 49.20000076293945,-55.733001708984375 49.20000076293945,-51.79999923706055 C49.20000076293945,-48 47.650001525878906,-44.965999603271484 44.54999923706055,-42.70000076293945 C41.45000076293945,-40.43299865722656 37.20000076293945,-39.29999923706055 31.799999237060547,-39.29999923706055 C26.399999618530273,-39.29999923706055 22.166000366210938,-40.43299865722656 19.100000381469727,-42.70000076293945 C16.033000946044922,-44.965999603271484 14.5,-48.03300094604492 14.5,-51.900001525878906z M45.29999923706055,-36.70000076293945 C48.900001525878906,-38.099998474121094 51.66600036621094,-40.11600112915039 53.599998474121094,-42.75 C55.53300094604492,-45.382999420166016 56.5,-48.5 56.5,-52.099998474121094 C56.5,-55.83300018310547 55.465999603271484,-59.099998474121094 53.400001525878906,-61.900001525878906 C51.33300018310547,-64.69999694824219 48.45000076293945,-66.8499984741211 44.75,-68.3499984741211 C41.04999923706055,-69.8499984741211 36.733001708984375,-70.5999984741211 31.799999237060547,-70.5999984741211 C24.33300018310547,-70.5999984741211 18.382999420166016,-68.93299865722656 13.949999809265137,-65.5999984741211 C9.515999794006348,-62.26599884033203 7.300000190734863,-57.76599884033203 7.300000190734863,-52.099998474121094 C7.300000190734863,-48.5 8.232999801635742,-45.382999420166016 10.100000381469727,-42.75 C11.965999603271484,-40.11600112915039 14.699999809265137,-38.099998474121094 18.299999237060547,-36.70000076293945 C13.899999618530273,-35.233001708984375 10.550000190734863,-33.04999923706055 8.25,-30.149999618530273 C5.949999809265137,-27.25 4.800000190734863,-23.700000762939453 4.800000190734863,-19.5 C4.800000190734863,-13.300000190734863 7.199999809265137,-8.399999618530273 12,-4.800000190734863 C16.799999237060547,-1.2000000476837158 23.399999618530273,0.6000000238418579 31.799999237060547,0.6000000238418579 C37.33300018310547,0.6000000238418579 42.150001525878906,-0.2160000056028366 46.25,-1.850000023841858 C50.349998474121094,-3.4830000400543213 53.5,-5.815999984741211 55.70000076293945,-8.850000381469727 C57.900001525878906,-11.883000373840332 59,-15.432999610900879 59,-19.5 C59,-23.632999420166016 57.816001892089844,-27.166000366210938 55.45000076293945,-30.100000381469727 C53.08300018310547,-33.03300094604492 49.70000076293945,-35.233001708984375 45.29999923706055,-36.70000076293945z"></path><g opacity="1" transform="matrix(1,0,0,1,0,0)"></g></g></g></g><g stroke-linecap="butt" stroke-linejoin="round" stroke-miterlimit="4" transform="matrix(1,0,0,1,72.04566955566406,0)" opacity="1" fill="rgb(206,211,248)" style="display: inherit;"><g transform="scale(0.310675601959229,0.310675601959229)"><g transform="matrix(1,0,0,1,0,0)" opacity="1" style="display: block;"><path d=" M27.799999237060547,-34.20000076293945 C22.399999618530273,-34.20000076293945 18.115999221801758,-35.566001892089844 14.949999809265137,-38.29999923706055 C11.782999992370605,-41.03300094604492 10.199999809265137,-44.70000076293945 10.199999809265137,-49.29999923706055 C10.199999809265137,-53.900001525878906 11.782999992370605,-57.58300018310547 14.949999809265137,-60.349998474121094 C18.115999221801758,-63.11600112915039 22.232999801635742,-64.5 27.299999237060547,-64.5 C31.166000366210938,-64.5 34.5,-63.79999923706055 37.29999923706055,-62.400001525878906 C40.099998474121094,-61 42.215999603271484,-59.16600036621094 43.650001525878906,-56.900001525878906 C45.08300018310547,-54.632999420166016 45.79999923706055,-52.16600036621094 45.79999923706055,-49.5 C45.79999923706055,-46.632999420166016 45.03300094604492,-44.03300094604492 43.5,-41.70000076293945 C41.965999603271484,-39.36600112915039 39.849998474121094,-37.53300094604492 37.150001525878906,-36.20000076293945 C34.45000076293945,-34.86600112915039 31.33300018310547,-34.20000076293945 27.799999237060547,-34.20000076293945z M27,-70.5999984741211 C22.465999603271484,-70.5999984741211 18.382999420166016,-69.71600341796875 14.75,-67.94999694824219 C11.116000175476074,-66.18299865722656 8.265999794006348,-63.66600036621094 6.199999809265137,-60.400001525878906 C4.132999897003174,-57.132999420166016 3.0999999046325684,-53.36600112915039 3.0999999046325684,-49.099998474121094 C3.0999999046325684,-44.900001525878906 4.099999904632568,-41.215999603271484 6.099999904632568,-38.04999923706055 C8.100000381469727,-34.882999420166016 10.883000373840332,-32.43299865722656 14.449999809265137,-30.700000762939453 C18.016000747680664,-28.965999603271484 22.100000381469727,-28.100000381469727 26.700000762939453,-28.100000381469727 C31.632999420166016,-28.100000381469727 36,-29.149999618530273 39.79999923706055,-31.25 C43.599998474121094,-33.349998474121094 46.36600112915039,-36.29999923706055 48.099998474121094,-40.099998474121094 C48.29999923706055,-38.03300094604492 48.400001525878906,-36.132999420166016 48.400001525878906,-34.400001525878906 C48.400001525878906,-25.06599998474121 46.20000076293945,-17.950000762939453 41.79999923706055,-13.050000190734863 C37.400001525878906,-8.149999618530273 31.33300018310547,-5.699999809265137 23.600000381469727,-5.699999809265137 C17.865999221801758,-5.699999809265137 13.333000183105469,-6.800000190734863 10,-9 C10,-9 7.099999904632568,-3.200000047683716 7.099999904632568,-3.200000047683716 C11.232999801635742,-0.6660000085830688 16.766000747680664,0.6000000238418579 23.700000762939453,0.6000000238418579 C30.100000381469727,0.6000000238418579 35.70000076293945,-0.7829999923706055 40.5,-3.549999952316284 C45.29999923706055,-6.315999984741211 49.03300094604492,-10.399999618530273 51.70000076293945,-15.800000190734863 C54.36600112915039,-21.200000762939453 55.70000076293945,-27.799999237060547 55.70000076293945,-35.599998474121094 C55.70000076293945,-46.733001708984375 53.233001708984375,-55.349998474121094 48.29999923706055,-61.45000076293945 C43.36600112915039,-67.55000305175781 36.26599884033203,-70.5999984741211 27,-70.5999984741211z"></path><g opacity="1" transform="matrix(1,0,0,1,0,0)"></g></g></g></g><g stroke-linecap="butt" stroke-linejoin="round" stroke-miterlimit="4" transform="matrix(1,0,0,1,90.9658203125,0)" opacity="1" fill="rgb(206,211,248)" style="display: inherit;"><g transform="scale(0.310675601959229,0.310675601959229)"><g transform="matrix(1,0,0,1,0,0)" opacity="1" style="display: block;"><path d=" M33.099998474121094,-6 C29.033000946044922,-6 25.450000762939453,-7.132999897003174 22.350000381469727,-9.399999618530273 C19.25,-11.666000366210938 16.83300018310547,-14.965999603271484 15.100000381469727,-19.299999237060547 C13.366000175476074,-23.632999420166016 12.5,-28.865999221801758 12.5,-35 C12.5,-41.132999420166016 13.366000175476074,-46.36600112915039 15.100000381469727,-50.70000076293945 C16.83300018310547,-55.03300094604492 19.25,-58.33300018310547 22.350000381469727,-60.599998474121094 C25.450000762939453,-62.86600112915039 29.033000946044922,-64 33.099998474121094,-64 C37.16600036621094,-64 40.75,-62.86600112915039 43.849998474121094,-60.599998474121094 C46.95000076293945,-58.33300018310547 49.36600112915039,-55.03300094604492 51.099998474121094,-50.70000076293945 C52.83300018310547,-46.36600112915039 53.70000076293945,-41.132999420166016 53.70000076293945,-35 C53.70000076293945,-28.865999221801758 52.83300018310547,-23.632999420166016 51.099998474121094,-19.299999237060547 C49.36600112915039,-14.965999603271484 46.95000076293945,-11.666000366210938 43.849998474121094,-9.399999618530273 C40.75,-7.132999897003174 37.16600036621094,-6 33.099998474121094,-6z M33.099998474121094,0.6000000238418579 C38.5,0.6000000238418579 43.316001892089844,-0.8330000042915344 47.54999923706055,-3.700000047683716 C51.78300094604492,-6.565999984741211 55.099998474121094,-10.682999610900879 57.5,-16.049999237060547 C59.900001525878906,-21.416000366210938 61.099998474121094,-27.732999801635742 61.099998474121094,-35 C61.099998474121094,-42.26599884033203 59.900001525878906,-48.58300018310547 57.5,-53.95000076293945 C55.099998474121094,-59.316001892089844 51.78300094604492,-63.43299865722656 47.54999923706055,-66.30000305175781 C43.316001892089844,-69.16600036621094 38.5,-70.5999984741211 33.099998474121094,-70.5999984741211 C27.700000762939453,-70.5999984741211 22.882999420166016,-69.16600036621094 18.649999618530273,-66.30000305175781 C14.416000366210938,-63.43299865722656 11.116000175476074,-59.316001892089844 8.75,-53.95000076293945 C6.382999897003174,-48.58300018310547 5.199999809265137,-42.26599884033203 5.199999809265137,-35 C5.199999809265137,-27.732999801635742 6.382999897003174,-21.416000366210938 8.75,-16.049999237060547 C11.116000175476074,-10.682999610900879 14.416000366210938,-6.565999984741211 18.649999618530273,-3.700000047683716 C22.882999420166016,-0.8330000042915344 27.700000762939453,0.6000000238418579 33.099998474121094,0.6000000238418579z"></path><g opacity="1" transform="matrix(1,0,0,1,0,0)"></g></g></g></g></g><g style="display: block;" transform="matrix(1,0,0,1,346,343)" opacity="1"><g opacity="1" transform="matrix(1,0,0,1,0,0)"><g opacity="1" transform="matrix(1,0,0,1,0,0)"><path fill="rgb(251,185,5)" fill-opacity="1" d=" M56.77399826049805,-45.965999603271484 C56.77399826049805,-56.3120002746582 65.16200256347656,-64.6989974975586 75.50800323486328,-64.6989974975586 C85.85399627685547,-64.6989974975586 94.24099731445312,-56.3120002746582 94.24099731445312,-45.965999603271484 C94.24099731445312,-35.619998931884766 85.85399627685547,-27.23200035095215 75.50800323486328,-27.23200035095215 C65.16200256347656,-27.23200035095215 56.77399826049805,-35.619998931884766 56.77399826049805,-45.965999603271484z"></path></g><g opacity="1" transform="matrix(1,0,0,1,0,0)"><path fill="rgb(255,255,255)" fill-opacity="1" d=" M72.48999786376953,-57.67300033569336 C72.48999786376953,-57.67300033569336 78.55999755859375,-57.67300033569336 78.55999755859375,-57.67300033569336 C78.55999755859375,-57.67300033569336 78.55999755859375,-53.42100143432617 78.55999755859375,-53.42100143432617 C78.55999755859375,-53.42100143432617 77.53099822998047,-41.07400131225586 77.53099822998047,-41.07400131225586 C77.53099822998047,-41.07400131225586 73.48500061035156,-41.07400131225586 73.48500061035156,-41.07400131225586 C73.48500061035156,-41.07400131225586 72.48999786376953,-53.42100143432617 72.48999786376953,-53.42100143432617 C72.48999786376953,-53.42100143432617 72.48999786376953,-57.67300033569336 72.48999786376953,-57.67300033569336z M73.36399841308594,-34.30099868774414 C72.78099822998047,-34.88399887084961 72.48999786376953,-35.597999572753906 72.48999786376953,-36.444000244140625 C72.48999786376953,-37.290000915527344 72.78099822998047,-38.005001068115234 73.36399841308594,-38.5880012512207 C73.9469985961914,-39.17100143432617 74.66200256347656,-39.46200180053711 75.50800323486328,-39.46200180053711 C76.35399627685547,-39.46200180053711 77.06800079345703,-39.17100143432617 77.6510009765625,-38.5880012512207 C78.23400115966797,-38.005001068115234 78.5260009765625,-37.290000915527344 78.5260009765625,-36.444000244140625 C78.5260009765625,-35.597999572753906 78.23400115966797,-34.88399887084961 77.6510009765625,-34.30099868774414 C77.06800079345703,-33.71799850463867 76.35399627685547,-33.42599868774414 75.50800323486328,-33.42599868774414 C74.66200256347656,-33.42599868774414 73.9469985961914,-33.71799850463867 73.36399841308594,-34.30099868774414z"></path></g></g></g><g transform="matrix(0.99977707862854,-0.02111382782459259,0.02111382782459259,0.99977707862854,346,343)" opacity="1" style="display: block;"><g opacity="1" transform="matrix(1,0,0,1,0,0)"><path fill="rgb(251,185,5)" fill-opacity="1" d=" M-69.22899627685547,-320.5369873046875 C-69.22899627685547,-320.5369873046875 -80.44300079345703,-318.260986328125 -80.44300079345703,-318.260986328125 C-81.31999969482422,-318.0830078125 -82.03600311279297,-317.45098876953125 -82.31999969482422,-316.60198974609375 C-82.31999969482422,-316.60198974609375 -85.95700073242188,-305.75201416015625 -85.95700073242188,-305.75201416015625 C-86.24099731445312,-304.90301513671875 -86.052001953125,-303.9670104980469 -85.45899963378906,-303.2969970703125 C-85.45899963378906,-303.2969970703125 -77.87899780273438,-294.7229919433594 -77.87899780273438,-294.7229919433594 C-77.28600311279297,-294.0530090332031 -76.38200378417969,-293.7489929199219 -75.50499725341797,-293.9280090332031 C-75.50499725341797,-293.9280090332031 -64.29100036621094,-296.2030029296875 -64.29100036621094,-296.2030029296875 C-63.41400146484375,-296.3810119628906 -62.698001861572266,-297.01300048828125 -62.41400146484375,-297.8609924316406 C-62.41400146484375,-297.8609924316406 -58.777000427246094,-308.7130126953125 -58.777000427246094,-308.7130126953125 C-58.49300003051758,-309.5610046386719 -58.68199920654297,-310.4960021972656 -59.275001525878906,-311.1669921875 C-59.275001525878906,-311.1669921875 -66.85399627685547,-319.74200439453125 -66.85399627685547,-319.74200439453125 C-67.4469985961914,-320.4119873046875 -68.35199737548828,-320.7149963378906 -69.22899627685547,-320.5369873046875z"></path></g><g opacity="1" transform="matrix(1,0,0,1,0,0)"><path fill="rgb(251,185,5)" fill-opacity="1" d=" M310.5469970703125,44.66999816894531 C310.5469970703125,44.66999816894531 315.3590087890625,61.810001373291016 315.3590087890625,61.810001373291016 C315.8800048828125,63.66699981689453 318.2149963378906,64.26200103759766 319.56298828125,62.88199996948242 C319.56298828125,62.88199996948242 332,50.14500045776367 332,50.14500045776367 C333.3479919433594,48.76599884033203 332.6960144042969,46.44499969482422 330.8280029296875,45.96900177001953 C330.8280029296875,45.96900177001953 313.57598876953125,41.566001892089844 313.57598876953125,41.566001892089844 C311.7090148925781,41.0890007019043 310.0260009765625,42.81399917602539 310.5469970703125,44.66999816894531z"></path></g><g opacity="1" transform="matrix(1,0,0,1,0,0)"><path fill="rgb(251,185,5)" fill-opacity="1" d=" M-295.91900634765625,192.55499267578125 C-295.91900634765625,192.55499267578125 -308.0799865722656,205.55499267578125 -308.0799865722656,205.55499267578125 C-309.39801025390625,206.96200561523438 -308.697998046875,209.2689971923828 -306.8190002441406,209.7050018310547 C-306.8190002441406,209.7050018310547 -289.47900390625,213.73800659179688 -289.47900390625,213.73800659179688 C-287.6000061035156,214.1739959716797 -285.9530029296875,212.4149932861328 -286.5140075683594,210.57000732421875 C-286.5140075683594,210.57000732421875 -291.6940002441406,193.53700256347656 -291.6940002441406,193.53700256347656 C-292.2550048828125,191.69000244140625 -294.60198974609375,191.14599609375 -295.91900634765625,192.55499267578125z"></path></g></g><g transform="matrix(0.7149999737739563,0,0,0.7149999737739563,244.15843200683594,419.72235107421875)" opacity="1" style="display: block;"><g opacity="1" transform="matrix(1,0,0.003872139612212777,1,-0.2129669189453125,0)"><g opacity="1" transform="matrix(1,0,0,1,0,0)"><path fill="rgb(236,158,0)" fill-opacity="1" d=" M-122.41300201416016,-64.16999816894531 C-139.01100158691406,-33.33599853515625 -142.72300720214844,-15.232999801635742 -142.5760040283203,-0.16200000047683716 C-142.4040069580078,17.509000778198242 -129.04299926757812,65.06999969482422 -129.04299926757812,65.06999969482422 C-128.4530029296875,47.96699905395508 -125,-24 -122.41300201416016,-64.16999816894531z"></path></g></g><g opacity="1" transform="matrix(1,0,0,1,0,0)"><g opacity="1" transform="matrix(1,0,0,1,0,0)"><path fill="rgb(246,211,200)" fill-opacity="1" d=" M-66.3239974975586,269.2330017089844 C-66.3239974975586,267.0769958496094 -66.3239974975586,265.3219909667969 -66.3239974975586,265.3219909667969 C-66.3239974975586,265.3219909667969 -55.63800048828125,265.3219909667969 -55.63800048828125,265.3219909667969 C-55.5,268.96600341796875 -54.823001861572266,270.91900634765625 -54.4119987487793,272.4320068359375 C-57.191001892089844,273.4989929199219 -61.25699996948242,270.7439880371094 -66.3239974975586,269.2330017089844z"></path></g><g opacity="1" transform="matrix(1,0,0,1,0,0)"><path fill="rgb(8,115,129)" fill-opacity="1" d=" M-66.3239974975586,269.2330017089844 C-61.25699996948242,270.7439880371094 -57.191001892089844,273.4989929199219 -54.4119987487793,272.4320068359375 C-52.941001892089844,273.4989929199219 -31.270999908447266,281.29400634765625 -29.065000534057617,282.8039855957031 C-26.808000564575195,284.3489990234375 -27.138999938964844,286.7449951171875 -29.527999877929688,286.7449951171875 C-33.02199935913086,286.7449951171875 -61.79600143432617,285.4779968261719 -61.79600143432617,285.4779968261719 C-62.38100051879883,286.1109924316406 -62.854000091552734,286.7449951171875 -62.854000091552734,286.7449951171875 C-62.854000091552734,286.7449951171875 -69.42900085449219,286.7449951171875 -69.42900085449219,286.7449951171875 C-71.38999938964844,283.3450012207031 -70.85900115966797,273.14300537109375 -66.3239974975586,269.2330017089844z"></path></g></g><g opacity="1" transform="matrix(1,0,0,1,0,0)"><g opacity="1" transform="matrix(1,0,0,1,0,0)"><path fill="rgb(246,211,200)" fill-opacity="1" d=" M-136.13699340820312,269.2330017089844 C-136.13699340820312,267.0769958496094 -136.13699340820312,265.3219909667969 -136.13699340820312,265.3219909667969 C-136.13699340820312,265.3219909667969 -125.45099639892578,265.3219909667969 -125.45099639892578,265.3219909667969 C-125.31300354003906,268.96600341796875 -124.63500213623047,270.91900634765625 -124.2249984741211,272.4320068359375 C-127.00399780273438,273.4989929199219 -131.07000732421875,270.7439880371094 -136.13699340820312,269.2330017089844z"></path></g><g opacity="1" transform="matrix(1,0,0,1,0,0)"><path fill="rgb(8,115,129)" fill-opacity="1" d=" M-136.13699340820312,269.2330017089844 C-131.07000732421875,270.7439880371094 -127.00399780273438,273.4989929199219 -124.2249984741211,272.4320068359375 C-122.75399780273438,273.4989929199219 -101.08300018310547,281.29400634765625 -98.87699890136719,282.8039855957031 C-96.62000274658203,284.3489990234375 -96.95099639892578,286.7449951171875 -99.34100341796875,286.7449951171875 C-102.83399963378906,286.7449951171875 -131.60899353027344,285.4779968261719 -131.60899353027344,285.4779968261719 C-132.1929931640625,286.1109924316406 -132.66700744628906,286.7449951171875 -132.66700744628906,286.7449951171875 C-132.66700744628906,286.7449951171875 -139.24200439453125,286.7449951171875 -139.24200439453125,286.7449951171875 C-141.20399475097656,283.3450012207031 -140.6719970703125,273.14300537109375 -136.13699340820312,269.2330017089844z"></path></g></g><g opacity="1" transform="matrix(1,0,0,1,0,0)"><path fill="rgb(18,68,69)" fill-opacity="1" d=" M-129.281005859375,44.55799865722656 C-134.58900451660156,64.06300354003906 -139.01199340820312,241.7010040283203 -139.01199340820312,265.3219909667969 C-134.58900451660156,265.3219909667969 -122.42500305175781,265.3219909667969 -122.42500305175781,265.3219909667969 C-120.01499938964844,251.156005859375 -101.33499908447266,135.7740020751953 -97.35399627685547,108.77400207519531 C-102.66200256347656,82.21600341796875 -129.281005859375,44.55799865722656 -129.281005859375,44.55799865722656z"></path></g><g opacity="1" transform="matrix(1,0,0,1,0,0)"><path fill="rgb(8,55,61)" fill-opacity="1" d=" M-59.39099884033203,44.55799865722656 C-56.73699951171875,65.83200073242188 -52.75899887084961,231.0850067138672 -52.75899887084961,265.3219909667969 C-57.624000549316406,265.3219909667969 -70.21600341796875,265.3219909667969 -70.21600341796875,265.3219909667969 C-72.57499694824219,243.13999938964844 -94.68499755859375,136.36399841308594 -109.55799865722656,108.77400207519531 C-120.19000244140625,89.0510025024414 -132.51400756835938,75.4749984741211 -129.281005859375,44.55799865722656 C-119.55000305175781,44.55799865722656 -59.39099884033203,44.55799865722656 -59.39099884033203,44.55799865722656z"></path></g><g opacity="1" transform="matrix(1,0,0.003872139612212777,1,-0.2129669189453125,0)"><g opacity="1" transform="matrix(1,0,0,1,0,0)"><path fill="rgb(251,185,5)" fill-opacity="1" d=" M-59.39099884033203,44.55799865722656 C-60.2760009765625,27.792999267578125 -59.834999084472656,-13.70199966430664 -60.073001861572266,-20.951000213623047 C-60.49599838256836,-33.81800079345703 -54.3129997253418,-53.810001373291016 -61.643001556396484,-61.95000076293945 C-66.64600372314453,-67.50599670410156 -72.01300048828125,-71.74700164794922 -80.2249984741211,-72.40799713134766 C-92.2020034790039,-73.37100219726562 -123.76699829101562,-79.19000244140625 -127.5530014038086,-51.250999450683594 C-131.1959991455078,-24.365999221801758 -131.93499755859375,35.22600173950195 -129.281005859375,44.55799865722656 C-119.55000305175781,44.55799865722656 -59.39099884033203,44.55799865722656 -59.39099884033203,44.55799865722656z"></path></g><g opacity="1" transform="matrix(1,0,0,1,0,0)"><path fill="rgb(240,204,191)" fill-opacity="1" d=" M-65.7239990234375,46.832000732421875 C-66.83100128173828,48.92499923706055 -65.9739990234375,54.827999114990234 -63.87900161743164,56.35100173950195 C-61.78499984741211,57.874000549316406 -59.308998107910156,53.68600082397461 -59.308998107910156,53.68600082397461 C-59.308998107910156,53.68600082397461 -65.7239990234375,46.832000732421875 -65.7239990234375,46.832000732421875z"></path></g><g opacity="1" transform="matrix(1,0,0,1,0,0)"><path fill="rgb(255,208,61)" fill-opacity="1" d=" M-74.00599670410156,-66.0770034790039 C-68.44200134277344,-68.68099975585938 -61.547000885009766,-65.625 -54.21200180053711,-49.8120002746582 C-48.534000396728516,-37.571998596191406 -37.957000732421875,-8.71399974822998 -38.25199890136719,8.979000091552734 C-38.547000885009766,26.672000885009766 -59.18899917602539,54.90700149536133 -59.18899917602539,54.90700149536133 C-61.650001525878906,54.90700149536133 -67.15399932861328,50.54999923706055 -65.38099670410156,44.55799865722656 C-62.689998626708984,36.89099884033203 -54.612998962402344,14.383999824523926 -56.01900100708008,3.424999952316284 C-57.42499923706055,-7.533999919891357 -71.83100128173828,-37.97800064086914 -74.19000244140625,-42.10599899291992 C-76.54900360107422,-46.23400115966797 -80.93599700927734,-62.83300018310547 -74.00599670410156,-66.0770034790039z"></path></g><g opacity="1" transform="matrix(0.9828950762748718,0.18416644632816315,-0.18416644632816315,0.9828950762748718,-15.069122314453125,16.247154235839844)"><g opacity="1" transform="matrix(1,0,0,1,0,0)"><path fill="rgb(247,216,208)" fill-opacity="1" d=" M-105.44599914550781,-94.88600158691406 C-104.65499877929688,-91.12200164794922 -103.33100128173828,-77.22000122070312 -106.2030029296875,-72.80500030517578 C-103.72699737548828,-71.23699951171875 -95.02100372314453,-70.0479965209961 -82.21499633789062,-72.58899688720703 C-84.38800048828125,-74.85099792480469 -87.74099731445312,-77.33499908447266 -85.59400177001953,-81.86199951171875 C-83.25700378417969,-86.79000091552734 -78.08399963378906,-80.87100219726562 -75.06800079345703,-88.87899780273438 C-71.5459976196289,-98.21800231933594 -71.75700378417969,-116.02799987792969 -76.4219970703125,-120.5989990234375 C-81.64099884033203,-125.71600341796875 -91.69499969482422,-131.6580047607422 -103.86900329589844,-123.0469970703125 C-113.8030014038086,-116.02300262451172 -107.052001953125,-102.53500366210938 -105.44599914550781,-94.88600158691406z"></path></g><g opacity="1" transform="matrix(1,0,0,1,0,0)"><path fill="rgb(32,24,111)" fill-opacity="1" d=" M-80.84700012207031,-106.6240005493164 C-77.93599700927734,-106.8280029296875 -79.00800323486328,-112.02799987792969 -79.00800323486328,-114.84400177001953 C-79.00800323486328,-116.83399963378906 -77.05400085449219,-118.24099731445312 -74.83499908447266,-118.20800018310547 C-66.5719985961914,-118.08399963378906 -62.369998931884766,-129.11700439453125 -67.97799682617188,-133.11000061035156 C-73.59200286865234,-137.1020050048828 -77.83599853515625,-130.58399963378906 -81.8479995727539,-131.5540008544922 C-86.52300262451172,-132.68600463867188 -86.19200134277344,-138.30299377441406 -92.89900207519531,-137.14700317382812 C-99.09400177001953,-136.08099365234375 -95.7699966430664,-130.51499938964844 -99.64900207519531,-129.1479949951172 C-103.64600372314453,-127.73899841308594 -110.11599731445312,-132.6510009765625 -114.56600189208984,-125.81999969482422 C-117.86699676513672,-120.7509994506836 -111.52300262451172,-116.46099853515625 -111.66500091552734,-111.12100219726562 C-111.75399780273438,-107.78700256347656 -115.0510025024414,-93.87100219726562 -105.83000183105469,-91.302001953125 C-96.36399841308594,-88.66500091552734 -88.37300109863281,-97.0770034790039 -89.16000366210938,-106.38999938964844 C-89.47899627685547,-110.16400146484375 -88.47100067138672,-113.01599884033203 -86.58999633789062,-112.94400024414062 C-83.78600311279297,-112.83599853515625 -85.00700378417969,-106.3270034790039 -80.84700012207031,-106.6240005493164z"></path></g></g></g></g></g></svg>